<svg width="260" height="94" viewBox="0 0 260 94" fill="none" xmlns="http://www.w3.org/2000/svg">
<g clip-path="url(#clip0_97_4)">
<path d="M9.4918 53.6142L15.3117 54.7587C16.7621 55.0494 18.2492 54.5952 19.2957 53.5597L22.123 50.7618C24.2527 48.6543 27.8328 49.2356 29.173 51.8882L30.8805 55.2493C31.7617 56.9934 33.5609 58.1017 35.5438 58.1017C38.3344 58.1017 40.3355 55.4491 39.5277 52.7966L38.4262 49.1811C37.5816 46.3832 39.693 43.5672 42.6488 43.5672H43.0711C45.5312 43.5672 47.8262 42.3499 49.1848 40.3333L51.1492 37.4082C52.1773 35.8639 52.1223 33.8472 51.0023 32.3756L48.0465 28.4695C46.1555 25.9804 47.4406 22.3831 50.5066 21.6201L53.6277 20.8388C55.0047 20.4937 56.1246 19.5307 56.657 18.2226L59.668 10.7919C55.7023 9.4656 51.443 8.7207 47 8.7207C25.9051 8.7207 8.8125 25.6352 8.8125 46.5104C8.8125 48.9449 9.05117 51.325 9.4918 53.6142ZM84.343 54.4499C83.7922 54.3954 83.2414 54.4317 82.6906 54.5952L79.7898 55.3946C78.5598 55.7398 77.2562 55.2311 76.577 54.1774L76.2098 53.6142C75.1082 51.9064 73.1988 50.8708 71.1426 50.8708C69.0863 50.8708 67.1769 51.9064 66.0754 53.6142L64.9555 55.3401C64.6984 55.7398 64.3313 56.085 63.909 56.303L57.2812 59.973C53.9582 61.808 52.5996 65.8595 54.1602 69.2933L55.1699 71.5461C56.7488 75.0344 60.8063 76.724 64.4414 75.3796L64.9188 75.1979C66.7547 74.5257 68.8293 74.7982 70.4082 75.9428L70.6836 76.1426C77.5133 70.783 82.452 63.1706 84.343 54.4317V54.4499ZM94 46.5104C94 72.2002 72.9602 93.0208 47 93.0208C21.0398 93.0208 0 72.2002 0 46.5104C0 20.8207 21.0398 0 47 0C72.9602 0 94 20.8207 94 46.5104ZM26.5293 63.2433C26.1437 64.8057 27.0984 66.3864 28.659 66.7679L34.534 68.2213C36.1129 68.6029 37.7102 67.6581 38.0957 66.1138C38.4813 64.5695 37.5266 62.9707 35.966 62.5892L30.091 61.1358C28.5121 60.7542 26.9148 61.699 26.5293 63.2433ZM43.4199 59.6096C43.0344 61.1721 43.9891 62.7527 45.5496 63.1343C47.1102 63.5158 48.7258 62.571 49.1113 61.0268L50.5801 55.213C50.9656 53.6505 50.0109 52.0699 48.4504 51.6883C46.8898 51.3068 45.2742 52.2515 44.8887 53.7958L43.4199 59.6096ZM63.0094 20.6572C61.559 19.9304 59.7965 20.53 59.0621 21.9653L56.1246 27.7791C55.3902 29.2144 55.9961 30.9585 57.4465 31.6852C58.8969 32.4119 60.6594 31.8124 61.3937 30.3771L64.3312 24.5633C65.0656 23.128 64.4598 21.3839 63.0094 20.6572Z" fill="#166678"/>
</g>
<rect x="120" y="15.8333" width="140" height="28.6979" rx="5" fill="#166678"/>
<rect x="120" y="54.4583" width="140" height="3.95833" rx="1.97917" fill="#D9D9D9" fill-opacity="0.75"/>
<rect x="120" y="64.3438" width="93" height="3.95833" rx="1.97917" fill="#D9D9D9" fill-opacity="0.75"/>
<rect x="120" y="84" width="93" height="3.95833" rx="1.97917" fill="#D9D9D9" fill-opacity="0.75"/>
<rect x="120" y="74.2292" width="140" height="3.95833" rx="1.97917" fill="#D9D9D9" fill-opacity="0.75"/>
<path d="M141.33 34.7917L139.286 31.0817H138.712V34.7917H136.318V24.9637H140.336C141.111 24.9637 141.769 25.099 142.31 25.3697C142.861 25.6404 143.272 26.0137 143.542 26.4897C143.813 26.9564 143.948 27.479 143.948 28.0577C143.948 28.711 143.762 29.2944 143.388 29.8077C143.024 30.321 142.483 30.685 141.764 30.8997L144.032 34.7917H141.33ZM138.712 29.3877H140.196C140.635 29.3877 140.962 29.2804 141.176 29.0657C141.4 28.851 141.512 28.5477 141.512 28.1557C141.512 27.7824 141.4 27.4884 141.176 27.2737C140.962 27.059 140.635 26.9517 140.196 26.9517H138.712V29.3877ZM147.845 26.8817V28.8697H151.051V30.7177H147.845V32.8737H151.471V34.7917H145.451V24.9637H151.471V26.8817H147.845ZM152.619 29.8637C152.619 28.893 152.829 28.0297 153.249 27.2737C153.669 26.5084 154.253 25.9157 154.999 25.4957C155.755 25.0664 156.609 24.8517 157.561 24.8517C158.728 24.8517 159.727 25.1597 160.557 25.7757C161.388 26.3917 161.943 27.2317 162.223 28.2957H159.591C159.395 27.885 159.115 27.5724 158.751 27.3577C158.397 27.143 157.991 27.0357 157.533 27.0357C156.796 27.0357 156.199 27.2924 155.741 27.8057C155.284 28.319 155.055 29.005 155.055 29.8637C155.055 30.7224 155.284 31.4084 155.741 31.9217C156.199 32.435 156.796 32.6917 157.533 32.6917C157.991 32.6917 158.397 32.5844 158.751 32.3697C159.115 32.155 159.395 31.8424 159.591 31.4317H162.223C161.943 32.4957 161.388 33.3357 160.557 33.9517C159.727 34.5584 158.728 34.8617 157.561 34.8617C156.609 34.8617 155.755 34.6517 154.999 34.2317C154.253 33.8024 153.669 33.2097 153.249 32.4537C152.829 31.6977 152.619 30.8344 152.619 29.8637ZM168.337 34.8897C167.413 34.8897 166.564 34.675 165.789 34.2457C165.024 33.8164 164.413 33.219 163.955 32.4537C163.507 31.679 163.283 30.811 163.283 29.8497C163.283 28.8884 163.507 28.025 163.955 27.2597C164.413 26.4944 165.024 25.897 165.789 25.4677C166.564 25.0384 167.413 24.8237 168.337 24.8237C169.261 24.8237 170.106 25.0384 170.871 25.4677C171.646 25.897 172.253 26.4944 172.691 27.2597C173.139 28.025 173.363 28.8884 173.363 29.8497C173.363 30.811 173.139 31.679 172.691 32.4537C172.243 33.219 171.637 33.8164 170.871 34.2457C170.106 34.675 169.261 34.8897 168.337 34.8897ZM168.337 32.7057C169.121 32.7057 169.747 32.4444 170.213 31.9217C170.689 31.399 170.927 30.7084 170.927 29.8497C170.927 28.9817 170.689 28.291 170.213 27.7777C169.747 27.255 169.121 26.9937 168.337 26.9937C167.544 26.9937 166.909 27.2504 166.433 27.7637C165.967 28.277 165.733 28.9724 165.733 29.8497C165.733 30.7177 165.967 31.413 166.433 31.9357C166.909 32.449 167.544 32.7057 168.337 32.7057ZM185.825 24.9637V34.7917H183.431V28.8977L181.233 34.7917H179.301L177.089 28.8837V34.7917H174.695V24.9637H177.523L180.281 31.7677L183.011 24.9637H185.825ZM198.677 24.9637V34.7917H196.283V28.8977L194.085 34.7917H192.153L189.941 28.8837V34.7917H187.547V24.9637H190.375L193.133 31.7677L195.863 24.9637H198.677ZM202.792 26.8817V28.8697H205.998V30.7177H202.792V32.8737H206.418V34.7917H200.398V24.9637H206.418V26.8817H202.792ZM216.764 34.7917H214.37L210.366 28.7297V34.7917H207.972V24.9637H210.366L214.37 31.0537V24.9637H216.764V34.7917ZM222.182 24.9637C223.218 24.9637 224.123 25.169 224.898 25.5797C225.673 25.9904 226.27 26.569 226.69 27.3157C227.119 28.053 227.334 28.907 227.334 29.8777C227.334 30.839 227.119 31.693 226.69 32.4397C226.27 33.1864 225.668 33.765 224.884 34.1757C224.109 34.5864 223.209 34.7917 222.182 34.7917H218.5V24.9637H222.182ZM222.028 32.7197C222.933 32.7197 223.638 32.4724 224.142 31.9777C224.646 31.483 224.898 30.783 224.898 29.8777C224.898 28.9724 224.646 28.2677 224.142 27.7637C223.638 27.2597 222.933 27.0077 222.028 27.0077H220.894V32.7197H222.028ZM231.066 26.8817V28.8697H234.272V30.7177H231.066V32.8737H234.692V34.7917H228.672V24.9637H234.692V26.8817H231.066ZM239.928 24.9637C240.964 24.9637 241.869 25.169 242.644 25.5797C243.419 25.9904 244.016 26.569 244.436 27.3157C244.865 28.053 245.08 28.907 245.08 29.8777C245.08 30.839 244.865 31.693 244.436 32.4397C244.016 33.1864 243.414 33.765 242.63 34.1757C241.855 34.5864 240.955 34.7917 239.928 34.7917H236.246V24.9637H239.928ZM239.774 32.7197C240.679 32.7197 241.384 32.4724 241.888 31.9777C242.392 31.483 242.644 30.783 242.644 29.8777C242.644 28.9724 242.392 28.2677 241.888 27.7637C241.384 27.2597 240.679 27.0077 239.774 27.0077H238.64V32.7197H239.774Z" fill="white"/>
<defs>
<clipPath id="clip0_97_4">
<rect width="94" height="93.0208" fill="white"/>
</clipPath>
</defs>
</svg>
