<svg width="368" height="282" viewBox="0 0 368 282" fill="none" xmlns="http://www.w3.org/2000/svg">
<g clip-path="url(#clip0_281_336)">
<path d="M73.5306 211.155C73.2344 210.655 71.9532 211.19 71.7177 210.737C71.483 210.285 72.6734 209.597 73.3534 208.024C73.4761 207.741 74.2489 205.954 73.6768 205.402C72.5923 204.357 67.6297 208.67 65.893 207.259C65.5118 206.949 65.2456 206.331 64.092 205.327C63.6331 204.927 63.3556 204.747 63.0871 204.814C62.706 204.909 62.6758 205.42 62.2672 206.423C61.6544 207.927 61.292 207.836 60.9349 209.037C60.6699 209.928 60.7304 210.446 60.4186 210.547C59.9772 210.689 59.571 209.744 59.0116 209.829C58.4409 209.915 58.0958 211.016 57.9868 211.84C57.7823 213.386 58.3498 214.406 58.6644 215.479C59.0063 216.644 59.2092 218.417 58.4197 220.927L50.6056 242.952C52.3307 238.433 57.3257 226.044 59.4246 221.44C60.0305 220.111 60.6996 218.763 62.0733 218.231C63.3958 217.719 65.2122 218.024 67.5278 217.466C67.7983 217.401 68.5487 217.21 68.6432 216.769C68.7213 216.404 68.2799 216.2 68.3477 215.858C68.4387 215.399 69.3067 215.394 70.3735 214.864C71.1257 214.491 71.5943 214.048 71.9973 213.666C72.1188 213.551 73.9248 211.82 73.5306 211.155H73.5306Z" fill="#F2F2F2"/>
<path d="M42.7874 222.749C42.4569 222.751 42.3497 223.534 42.0593 223.519C41.7699 223.504 41.7757 222.721 41.2005 221.933C41.0968 221.791 40.4431 220.896 40.0075 221.018C39.1818 221.249 39.8659 224.93 38.6724 225.375C38.4105 225.473 38.0303 225.425 37.2049 225.702C36.8765 225.812 36.708 225.896 36.6634 226.048C36.6002 226.262 36.8418 226.424 37.216 226.914C37.7773 227.649 37.6282 227.801 38.114 228.323C38.4747 228.71 38.7464 228.83 38.7059 229.012C38.6486 229.27 38.0677 229.197 37.9478 229.496C37.8255 229.801 38.2658 230.288 38.6386 230.579C39.3381 231.125 40.0024 231.141 40.6195 231.296C41.2901 231.465 42.2185 231.877 43.2221 232.988L51.7733 243.18C50.0537 241.029 45.4167 235.002 43.7636 232.643C43.2864 231.962 42.818 231.245 42.9534 230.417C43.0836 229.619 43.7578 228.816 44.1521 227.518C44.1982 227.366 44.321 226.943 44.1316 226.769C43.975 226.625 43.7477 226.783 43.5995 226.651C43.4007 226.474 43.6484 226.046 43.6966 225.37C43.7306 224.893 43.6481 224.535 43.5772 224.227C43.5558 224.134 43.2275 222.748 42.7874 222.749V222.749Z" fill="#F2F2F2"/>
<path d="M49.3818 224.23L49.1826 222.452L49.2736 222.317C49.6947 221.694 49.9093 221.085 49.9118 220.507C49.9123 220.415 49.908 220.323 49.9037 220.23C49.8865 219.859 49.865 219.397 50.1054 218.86C50.2402 218.56 50.6187 217.866 51.1878 217.952C51.3411 217.974 51.457 218.044 51.5449 218.127C51.5578 218.106 51.5711 218.085 51.5853 218.063C51.7625 217.792 51.9029 217.677 52.0381 217.565C52.142 217.479 52.2493 217.391 52.4175 217.181C52.4913 217.089 52.5488 217.008 52.5973 216.941C52.7446 216.735 52.9368 216.491 53.2759 216.495C53.6382 216.512 53.8279 216.812 53.9536 217.01C54.1781 217.364 54.2798 217.619 54.3472 217.788C54.3717 217.85 54.3996 217.92 54.4137 217.941C54.5305 218.113 55.4794 217.952 55.837 217.894C56.64 217.76 57.3349 217.644 57.6212 218.151C57.8263 218.513 57.6739 218.992 57.1546 219.613C56.9928 219.806 56.8207 219.953 56.6679 220.068C56.7945 220.144 56.9078 220.26 56.9537 220.442C57.0619 220.873 56.6915 221.305 55.8533 221.727C55.6451 221.833 55.3648 221.974 54.9721 222.041C54.7871 222.073 54.6206 222.081 54.4781 222.085C54.4751 222.168 54.4558 222.257 54.4056 222.349C54.2584 222.619 53.9519 222.748 53.4901 222.717C52.9819 222.691 52.5634 222.594 52.1943 222.509C51.872 222.435 51.5943 222.372 51.3763 222.387C50.972 222.419 50.6604 222.743 50.2947 223.163L49.3818 224.23Z" fill="#F2F2F2"/>
<path d="M50.3056 213.641L48.6365 214.285L48.483 214.231C47.7734 213.982 47.1303 213.929 46.5708 214.073C46.4819 214.096 46.3941 214.123 46.3047 214.151C45.9504 214.262 45.5099 214.4 44.9292 214.303C44.6052 214.249 43.8383 214.059 43.7769 213.486C43.7588 213.333 43.7975 213.203 43.8549 213.097C43.8317 213.089 43.8084 213.082 43.7832 213.074C43.4767 212.971 43.329 212.864 43.1868 212.762C43.0774 212.683 42.9647 212.602 42.7194 212.492C42.6118 212.444 42.5192 212.409 42.4413 212.379C42.2055 212.289 41.9201 212.165 41.8382 211.835C41.763 211.48 42.0046 211.221 42.1645 211.049C42.4497 210.742 42.6705 210.579 42.817 210.471C42.8706 210.431 42.9307 210.387 42.9479 210.368C43.0844 210.211 42.6884 209.333 42.5412 209.002C42.208 208.259 41.9197 207.616 42.3369 207.211C42.6353 206.92 43.1373 206.946 43.8693 207.291C44.0972 207.399 44.2828 207.528 44.4329 207.647C44.4738 207.505 44.5572 207.366 44.7215 207.275C45.1109 207.061 45.6225 207.31 46.2437 208.014C46.3986 208.189 46.6059 208.424 46.7711 208.787C46.8487 208.958 46.8984 209.117 46.9387 209.254C47.0192 209.236 47.1105 209.232 47.2121 209.257C47.5109 209.331 47.7132 209.595 47.8005 210.05C47.9036 210.548 47.916 210.978 47.9274 211.357C47.9377 211.687 47.9476 211.972 48.017 212.179C48.1511 212.562 48.5431 212.782 49.0419 213.029L50.3056 213.642L50.3056 213.641Z" fill="#F2F2F2"/>
<path d="M49.3818 208.402L49.1826 206.624L49.2736 206.489C49.6947 205.866 49.9093 205.257 49.9118 204.679C49.9123 204.587 49.908 204.495 49.9037 204.401C49.8865 204.03 49.865 203.569 50.1054 203.032C50.2402 202.732 50.6187 202.038 51.1878 202.124C51.3411 202.146 51.457 202.216 51.5449 202.298C51.5578 202.278 51.5711 202.257 51.5853 202.235C51.7625 201.964 51.9029 201.848 52.0381 201.737C52.142 201.651 52.2493 201.562 52.4175 201.353C52.4913 201.261 52.5488 201.18 52.5973 201.112C52.7446 200.907 52.9368 200.663 53.2759 200.667C53.6382 200.684 53.8279 200.984 53.9536 201.182C54.1781 201.536 54.2798 201.791 54.3472 201.96C54.3717 202.022 54.3996 202.091 54.4137 202.113C54.5305 202.285 55.4794 202.124 55.837 202.066C56.64 201.932 57.3349 201.816 57.6212 202.322C57.8263 202.685 57.6739 203.164 57.1546 203.785C56.9928 203.978 56.8207 204.125 56.6679 204.24C56.7945 204.316 56.9078 204.431 56.9537 204.614C57.0619 205.045 56.6915 205.477 55.8533 205.899C55.6451 206.005 55.3648 206.145 54.9721 206.213C54.7871 206.245 54.6206 206.253 54.4781 206.257C54.4751 206.34 54.4558 206.429 54.4056 206.521C54.2584 206.791 53.9519 206.92 53.4901 206.889C52.9819 206.863 52.5634 206.765 52.1943 206.68C51.872 206.607 51.5943 206.544 51.3763 206.559C50.972 206.591 50.6604 206.915 50.2947 207.335L49.3818 208.402Z" fill="#F2F2F2"/>
<path d="M51.2007 242.923L50.8282 242.689L50.738 242.259L50.8282 242.689L50.3938 242.739C50.3869 242.699 50.3633 242.606 50.3277 242.461C50.1333 241.666 49.5406 239.246 49.0461 235.435C48.701 232.775 48.5057 230.04 48.4654 227.304C48.4251 224.565 48.5547 222.491 48.6585 220.825C48.7371 219.567 48.8324 218.37 48.9259 217.204C49.1749 214.089 49.4097 211.146 49.235 207.888C49.1963 207.16 49.1152 205.647 48.2311 204.036C47.7182 203.101 47.0117 202.272 46.131 201.571L46.6786 200.882C47.6508 201.657 48.4324 202.576 49.0019 203.613C49.9822 205.399 50.0706 207.049 50.1131 207.841C50.2908 211.157 50.0535 214.128 49.8019 217.274C49.7092 218.436 49.6139 219.627 49.5358 220.879C49.4328 222.531 49.3045 224.587 49.3444 227.291C49.3839 229.993 49.577 232.695 49.9174 235.322C50.4058 239.084 50.99 241.468 51.1818 242.251C51.284 242.67 51.3054 242.757 51.2007 242.923H51.2007Z" fill="#F2F2F2"/>
<path d="M44.5189 202.968C44.4829 202.968 44.4464 202.967 44.4095 202.965C43.6609 202.924 42.9678 202.476 42.3489 201.633C42.0587 201.236 41.9102 200.784 41.6141 199.881C41.5682 199.742 41.345 199.036 41.2093 198.065C41.1205 197.43 41.1317 197.165 41.2574 196.93C41.3969 196.669 41.6227 196.487 41.8767 196.365C41.8656 196.28 41.8746 196.194 41.9111 196.105C42.0609 195.739 42.4592 195.787 42.6746 195.81C42.7836 195.824 42.9197 195.842 43.0665 195.834C43.2974 195.823 43.4214 195.754 43.6094 195.651C43.7893 195.552 44.0129 195.429 44.3447 195.362C44.9988 195.225 45.5469 195.41 45.7275 195.471C46.6782 195.788 47.1469 196.528 47.6894 197.384C47.7976 197.556 48.1688 198.181 48.4139 199.038C48.5907 199.656 48.5659 199.931 48.5126 200.135C48.4045 200.555 48.1491 200.796 47.5006 201.326C46.8233 201.882 46.4834 202.16 46.1915 202.329C45.5121 202.722 45.0855 202.968 44.5189 202.968Z" fill="#F2F2F2"/>
<path d="M323.913 211.717C323.617 211.218 322.335 211.753 322.1 211.299C321.865 210.848 323.056 210.159 323.736 208.587C323.858 208.303 324.631 206.517 324.059 205.965C322.975 204.92 318.012 209.233 316.275 207.822C315.894 207.512 315.628 206.894 314.474 205.89C314.015 205.49 313.738 205.31 313.469 205.377C313.088 205.472 313.058 205.982 312.649 206.986C312.037 208.49 311.674 208.399 311.317 209.599C311.052 210.49 311.113 211.008 310.801 211.109C310.359 211.252 309.953 210.307 309.394 210.392C308.823 210.478 308.478 211.578 308.369 212.402C308.165 213.948 308.732 214.969 309.047 216.041C309.389 217.207 309.591 218.98 308.802 221.49L300.988 243.515C302.713 238.995 307.708 226.606 309.807 222.003C310.413 220.674 311.082 219.326 312.456 218.794C313.778 218.281 315.594 218.587 317.91 218.029C318.181 217.964 318.931 217.773 319.025 217.331C319.104 216.966 318.662 216.762 318.73 216.421C318.821 215.962 319.689 215.956 320.756 215.427C321.508 215.054 321.977 214.61 322.38 214.229C322.501 214.114 324.307 212.382 323.913 211.717Z" fill="#F2F2F2"/>
<path d="M293.17 223.312C292.839 223.313 292.732 224.097 292.442 224.082C292.152 224.067 292.158 223.284 291.583 222.496C291.479 222.354 290.825 221.459 290.39 221.581C289.564 221.812 290.248 225.493 289.055 225.938C288.793 226.036 288.413 225.988 287.587 226.265C287.259 226.375 287.09 226.459 287.046 226.61C286.982 226.825 287.224 226.987 287.598 227.477C288.16 228.212 288.01 228.364 288.496 228.885C288.857 229.273 289.129 229.392 289.088 229.575C289.031 229.833 288.45 229.759 288.33 230.058C288.208 230.364 288.648 230.85 289.021 231.142C289.72 231.688 290.385 231.704 291.002 231.859C291.672 232.027 292.601 232.439 293.604 233.551L302.156 243.743C300.436 241.592 295.799 235.565 294.146 233.206C293.669 232.525 293.2 231.807 293.336 230.979C293.466 230.182 294.14 229.379 294.534 228.081C294.58 227.929 294.703 227.505 294.514 227.332C294.357 227.188 294.13 227.346 293.982 227.214C293.783 227.037 294.031 226.609 294.079 225.933C294.113 225.456 294.03 225.098 293.959 224.79C293.938 224.697 293.61 223.311 293.17 223.312V223.312Z" fill="#F2F2F2"/>
<path d="M299.764 224.793L299.565 223.014L299.656 222.88C300.077 222.256 300.292 221.647 300.294 221.069C300.295 220.978 300.29 220.886 300.286 220.792C300.269 220.421 300.247 219.96 300.488 219.422C300.622 219.123 301.001 218.429 301.57 218.515C301.723 218.536 301.839 218.607 301.927 218.689C301.94 218.668 301.953 218.648 301.968 218.625C302.145 218.355 302.285 218.239 302.42 218.127C302.524 218.042 302.632 217.953 302.8 217.744C302.874 217.652 302.931 217.571 302.98 217.503C303.127 217.298 303.319 217.053 303.658 217.057C304.02 217.075 304.21 217.374 304.336 217.573C304.56 217.926 304.662 218.181 304.729 218.351C304.754 218.412 304.782 218.482 304.796 218.504C304.913 218.675 305.862 218.515 306.219 218.456C307.022 218.322 307.717 218.206 308.003 218.713C308.209 219.075 308.056 219.555 307.537 220.175C307.375 220.369 307.203 220.516 307.05 220.631C307.177 220.706 307.29 220.822 307.336 221.004C307.444 221.435 307.074 221.867 306.236 222.29C306.027 222.395 305.747 222.536 305.354 222.604C305.169 222.636 305.003 222.643 304.86 222.648C304.857 222.73 304.838 222.819 304.788 222.911C304.641 223.182 304.334 223.311 303.872 223.28C303.364 223.253 302.946 223.156 302.577 223.071C302.254 222.997 301.977 222.935 301.758 222.949C301.354 222.982 301.043 223.306 300.677 223.725L299.764 224.793Z" fill="#F2F2F2"/>
<path d="M300.688 214.204L299.019 214.848L298.865 214.794C298.156 214.545 297.513 214.492 296.953 214.636C296.864 214.659 296.776 214.686 296.687 214.714C296.333 214.825 295.892 214.962 295.311 214.866C294.987 214.812 294.221 214.622 294.159 214.049C294.141 213.895 294.18 213.765 294.237 213.659C294.214 213.652 294.191 213.644 294.165 213.636C293.859 213.533 293.711 213.427 293.569 213.325C293.46 213.246 293.347 213.164 293.102 213.055C292.994 213.007 292.901 212.971 292.824 212.942C292.588 212.851 292.302 212.727 292.22 212.398C292.145 212.043 292.387 211.784 292.547 211.612C292.832 211.305 293.053 211.142 293.199 211.033C293.253 210.994 293.313 210.949 293.33 210.93C293.467 210.774 293.071 209.896 292.923 209.565C292.59 208.822 292.302 208.179 292.719 207.773C293.018 207.483 293.52 207.509 294.252 207.854C294.479 207.962 294.665 208.091 294.815 208.21C294.856 208.068 294.939 207.929 295.104 207.838C295.493 207.624 296.005 207.873 296.626 208.577C296.781 208.752 296.988 208.987 297.153 209.35C297.231 209.521 297.281 209.68 297.321 209.817C297.401 209.799 297.493 209.795 297.594 209.82C297.893 209.894 298.095 210.158 298.183 210.613C298.286 211.111 298.298 211.541 298.31 211.919C298.32 212.25 298.33 212.535 298.399 212.742C298.533 213.125 298.925 213.344 299.424 213.592L300.688 214.204L300.688 214.204Z" fill="#F2F2F2"/>
<path d="M299.764 208.965L299.565 207.187L299.656 207.052C300.077 206.428 300.292 205.819 300.294 205.242C300.295 205.15 300.29 205.058 300.286 204.964C300.269 204.593 300.247 204.132 300.488 203.594C300.622 203.295 301.001 202.601 301.57 202.687C301.723 202.708 301.839 202.779 301.927 202.861C301.94 202.841 301.953 202.82 301.968 202.798C302.145 202.527 302.285 202.411 302.42 202.3C302.524 202.214 302.632 202.125 302.8 201.916C302.874 201.824 302.931 201.743 302.98 201.675C303.127 201.47 303.319 201.225 303.658 201.23C304.02 201.247 304.21 201.546 304.336 201.745C304.56 202.099 304.662 202.354 304.729 202.523C304.754 202.585 304.782 202.654 304.796 202.676C304.913 202.847 305.862 202.687 306.219 202.628C307.022 202.494 307.717 202.379 308.003 202.885C308.209 203.248 308.056 203.727 307.537 204.348C307.375 204.541 307.203 204.688 307.05 204.803C307.177 204.878 307.29 204.994 307.336 205.176C307.444 205.607 307.074 206.039 306.236 206.462C306.027 206.567 305.747 206.708 305.354 206.776C305.169 206.808 305.003 206.816 304.86 206.82C304.857 206.902 304.838 206.992 304.788 207.084C304.641 207.354 304.334 207.483 303.872 207.452C303.364 207.425 302.946 207.328 302.577 207.243C302.254 207.169 301.977 207.107 301.758 207.121C301.354 207.154 301.043 207.478 300.677 207.898L299.764 208.965Z" fill="#F2F2F2"/>
<path d="M301.583 243.486L301.21 243.252L301.12 242.822L301.21 243.252L300.776 243.302C300.769 243.262 300.746 243.169 300.71 243.024C300.516 242.229 299.923 239.809 299.428 235.998C299.083 233.337 298.888 230.602 298.848 227.867C298.807 225.128 298.937 223.054 299.041 221.387C299.119 220.13 299.215 218.933 299.308 217.767C299.557 214.651 299.792 211.709 299.617 208.451C299.579 207.723 299.498 206.209 298.613 204.598C298.1 203.664 297.394 202.834 296.513 202.134L297.061 201.445C298.033 202.22 298.815 203.138 299.384 204.176C300.364 205.962 300.453 207.612 300.495 208.404C300.673 211.72 300.436 214.691 300.184 217.836C300.092 218.998 299.996 220.19 299.918 221.442C299.815 223.094 299.687 225.149 299.727 227.853C299.766 230.556 299.959 233.257 300.3 235.884C300.788 239.647 301.372 242.031 301.564 242.814C301.666 243.232 301.688 243.32 301.583 243.486Z" fill="#F2F2F2"/>
<path d="M294.901 203.531C294.865 203.531 294.829 203.53 294.792 203.527C294.043 203.487 293.35 203.039 292.731 202.196C292.441 201.799 292.292 201.346 291.996 200.444C291.95 200.305 291.727 199.599 291.592 198.628C291.503 197.993 291.514 197.728 291.64 197.493C291.779 197.232 292.005 197.05 292.259 196.927C292.248 196.843 292.257 196.756 292.293 196.668C292.443 196.301 292.841 196.349 293.057 196.373C293.166 196.386 293.302 196.404 293.449 196.397C293.68 196.385 293.804 196.317 293.992 196.214C294.172 196.115 294.395 195.992 294.727 195.924C295.381 195.788 295.929 195.973 296.11 196.034C297.06 196.351 297.529 197.09 298.072 197.947C298.18 198.118 298.551 198.743 298.796 199.6C298.973 200.219 298.948 200.494 298.895 200.698C298.787 201.118 298.531 201.358 297.883 201.889C297.206 202.445 296.866 202.723 296.574 202.892C295.894 203.284 295.468 203.531 294.901 203.531Z" fill="#F2F2F2"/>
<path d="M180.228 109.816C201.358 109.816 218.488 92.6797 218.488 71.541C218.488 50.4022 201.358 33.2659 180.228 33.2659C159.097 33.2659 141.967 50.4022 141.967 71.541C141.967 92.6797 159.097 109.816 180.228 109.816Z" fill="#FF6884"/>
<path d="M328.051 242.689C328.051 242.95 327.84 243.162 327.579 243.162H0V242.216H327.579C327.84 242.216 328.051 242.428 328.051 242.689V242.689Z" fill="#E6E6E6"/>
<path d="M278.692 242.653C278.692 264.103 280.943 279.803 257.593 281.491C232.519 283.304 236.493 264.103 236.493 242.653C236.493 221.204 233.117 199.875 257.593 203.815C269.098 205.667 278.692 221.204 278.692 242.653Z" fill="#3F3D56"/>
<path d="M243.245 269.671C245.11 269.671 246.621 257.575 246.621 242.653C246.621 227.732 245.11 215.635 243.245 215.635C241.381 215.635 239.869 227.732 239.869 242.653C239.869 257.575 241.381 269.671 243.245 269.671Z" fill="#E6E6E6"/>
<path d="M109.692 208.112C109.692 227.041 111.678 240.895 91.0718 242.386C68.9446 243.986 72.4517 227.041 72.4517 208.112C72.4517 189.183 69.4725 170.361 91.0718 173.838C101.225 175.472 109.692 189.183 109.692 208.112Z" fill="#3F3D56"/>
<path d="M78.4101 231.955C80.0555 231.955 81.3894 221.28 81.3894 208.112C81.3894 194.944 80.0555 184.269 78.4101 184.269C76.7648 184.269 75.4309 194.944 75.4309 208.112C75.4309 221.28 76.7648 231.955 78.4101 231.955Z" fill="#E6E6E6"/>
<path d="M141.686 242.372C141.686 263.821 143.936 279.521 120.586 281.21C95.5122 283.023 99.4863 263.821 99.4863 242.372C99.4863 220.922 96.1104 199.594 120.586 203.534C132.091 205.386 141.686 220.922 141.686 242.372Z" fill="#3F3D56"/>
<path d="M106.238 269.389C108.103 269.389 109.614 257.293 109.614 242.372C109.614 227.45 108.103 215.354 106.238 215.354C104.374 215.354 102.862 227.45 102.862 242.372C102.862 257.293 104.374 269.389 106.238 269.389Z" fill="#E6E6E6"/>
<path d="M75.0108 162.726V176.04L71.3535 182.145L72.4788 203.534L73.3892 204.097L72.7601 182.426C79.1706 180.039 81.2668 184.436 80.6373 193.121L79.512 207.755L97.517 219.013L99.7677 195.935L108.208 191.995L117.491 231.114H273.037C279.449 231.114 284.573 225.777 284.313 219.368L282.35 170.887L277.053 165.589L272.147 108.815C270.923 94.657 258.923 83.8808 244.72 84.187L147.418 86.2849C142.139 86.3987 136.924 87.4618 132.021 89.4235L108.489 98.8401L93.2993 114.035L91.0465 150.624L85.3032 150.124C81.1718 149.765 77.4039 152.496 76.4589 156.536L75.0107 162.726H75.0108Z" fill="#E6E6E6"/>
<path d="M125.369 215.354C128.476 215.354 130.995 212.834 130.995 209.725C130.995 206.617 128.476 204.097 125.369 204.097C122.261 204.097 119.742 206.617 119.742 209.725C119.742 212.834 122.261 215.354 125.369 215.354Z" fill="#3F3D56"/>
<path d="M138.31 215.354C141.417 215.354 143.936 212.834 143.936 209.725C143.936 206.617 141.417 204.097 138.31 204.097C135.202 204.097 132.683 206.617 132.683 209.725C132.683 212.834 135.202 215.354 138.31 215.354Z" fill="#3F3D56"/>
<path d="M264.345 215.354C267.452 215.354 269.971 212.834 269.971 209.725C269.971 206.617 267.452 204.097 264.345 204.097C261.237 204.097 258.718 206.617 258.718 209.725C258.718 212.834 261.237 215.354 264.345 215.354Z" fill="#3F3D56"/>
<path d="M277.286 215.354C280.393 215.354 282.912 212.834 282.912 209.725C282.912 206.617 280.393 204.097 277.286 204.097C274.178 204.097 271.659 206.617 271.659 209.725C271.659 212.834 274.178 215.354 277.286 215.354Z" fill="#3F3D56"/>
<path d="M268.506 156.856H136.228C135.217 156.856 134.276 156.453 133.578 155.721C132.88 154.988 132.522 154.029 132.57 153.018L134.502 112.14C134.594 110.207 136.18 108.674 138.114 108.649L263.015 107.041C264.859 107.023 266.458 108.391 266.695 110.239L272.139 152.725C272.272 153.769 271.95 154.821 271.255 155.612C270.56 156.402 269.558 156.856 268.506 156.856H268.506Z" fill="white"/>
<path d="M117.759 154.846H109.177C108.159 154.846 107.178 154.417 106.487 153.669C105.796 152.921 105.445 151.909 105.525 150.893L107.996 119.53C108.131 117.808 109.42 116.434 111.129 116.19L119.998 114.923C121.108 114.765 122.214 115.115 123.03 115.886C123.846 116.657 124.26 117.74 124.166 118.859L121.409 151.49C121.248 153.403 119.678 154.846 117.759 154.846V154.846Z" fill="white"/>
<path d="M98.022 154.049C97.9332 154.049 97.8439 154.045 97.7547 154.039L96.7469 153.967C95.7516 153.896 94.8491 153.436 94.2062 152.673C93.5633 151.909 93.2641 150.941 93.3633 149.948L96.1356 122.213C96.2999 120.571 97.5508 119.235 99.1783 118.963C100.287 118.777 101.402 119.105 102.236 119.859C103.07 120.612 103.507 121.688 103.436 122.809L101.671 150.616C101.609 151.599 101.166 152.496 100.425 153.144C99.7517 153.733 98.9069 154.049 98.022 154.049L98.022 154.049Z" fill="white"/>
<path d="M84.0662 210.634L82.6066 178.768C82.6066 178.768 79.2307 174.265 76.9801 175.39C74.7294 176.516 71.3867 182.776 71.3867 182.776C71.3867 182.776 77.9102 182.349 77.7265 189.283C77.5427 196.217 78.8441 207.434 78.8441 207.434L84.0662 210.634Z" fill="#CCCCCC"/>
<path d="M97.6541 218.959L98.361 195.186L105.518 186.73C105.518 186.73 115.083 184.662 114.881 195.505C114.678 206.348 117.773 231.396 117.773 231.396L110.778 227.001C110.778 227.001 109.051 200.156 103.988 197.342C98.9236 194.528 100.612 196.779 100.612 196.779L97.6541 218.959H97.6541Z" fill="#CCCCCC"/>
<path d="M90.2003 158.016L84.6549 154.846H85.2604C86.1253 154.846 86.8266 154.144 86.8266 153.279V139.526C86.8266 138.661 86.1253 137.959 85.2604 137.959H79.3902C78.5252 137.959 77.824 138.661 77.824 139.526V153.279C77.824 154.144 78.5252 154.846 79.3902 154.846H82.387L89.642 158.993L90.2003 158.016V158.016Z" fill="#3F3D56"/>
<path d="M97.6923 178.622L93.3664 177.378C92.3211 177.077 91.2301 177.681 90.9295 178.727C90.6289 179.772 91.2326 180.864 92.2779 181.164L96.6038 182.409C97.6491 182.709 98.7401 182.106 99.0407 181.06C99.3412 180.014 98.7376 178.923 97.6923 178.622Z" fill="#3F3D56"/>
<path d="M273.926 138.663L255.429 137.864C254.343 137.817 253.424 138.66 253.377 139.748C253.33 140.835 254.173 141.754 255.259 141.801L273.756 142.599C274.843 142.646 275.762 141.803 275.809 140.716C275.856 139.629 275.013 138.71 273.926 138.663Z" fill="#3F3D56"/>
<path d="M291.369 175.812L272.872 175.014C271.785 174.967 270.866 175.81 270.819 176.897C270.772 177.984 271.615 178.903 272.702 178.95L291.199 179.749C292.285 179.796 293.204 178.953 293.251 177.866C293.298 176.779 292.455 175.859 291.369 175.812Z" fill="#3F3D56"/>
<path d="M215.956 218.731C239.573 218.731 258.718 199.579 258.718 175.953C258.718 152.327 239.573 133.175 215.956 133.175C192.339 133.175 173.194 152.327 173.194 175.953C173.194 199.579 192.339 218.731 215.956 218.731Z" fill="#3F3D56"/>
<path d="M215.956 201.282C229.94 201.282 241.276 189.942 241.276 175.953C241.276 161.964 229.94 150.624 215.956 150.624C201.973 150.624 190.637 161.964 190.637 175.953C190.637 189.942 201.973 201.282 215.956 201.282Z" fill="#E6E6E6"/>
<path d="M272.611 90.9975C272.826 93.4946 274.289 95.4076 275.877 95.2703C277.466 95.1331 278.578 92.9977 278.363 90.4998C278.29 89.5007 277.98 88.5336 277.457 87.6793L276.412 77.1106L271.464 77.7071L273.02 88.0626C272.652 88.9942 272.511 90.0006 272.611 90.9975L272.611 90.9975Z" fill="#FFB6B6"/>
<path d="M258.292 29.8178C258.292 29.8178 263.751 28.2796 265.849 30.8839C267.948 33.4882 275.775 59.0632 275.775 59.0632L278.205 86.5883L270.455 84.2424L267.439 62.5351L262.375 51.2777L258.292 29.8178Z" fill="#319795"/>
<path d="M256.51 13.26H239.874V29.0421H256.51V13.26Z" fill="#2F2E41"/>
<path d="M248.016 21.3006C252.496 21.3006 256.128 17.6675 256.128 13.1859C256.128 8.70425 252.496 5.07117 248.016 5.07117C243.536 5.07117 239.904 8.70425 239.904 13.1859C239.904 17.6675 243.536 21.3006 248.016 21.3006Z" fill="#FFB6B6"/>
<path d="M244.176 0.0604673C238.992 0.863197 239.239 2.79035 237.579 3.79077C234.654 5.55329 233.5 10.6429 235.045 14.0015C235.458 14.8989 236.328 16.1231 235.906 17.4449C235.581 18.4596 234.647 19.0582 234.471 19.1666C233.035 20.0538 233.973 18.9983 233.324 19.7405C232.607 20.5597 233.718 21.7168 233.037 23.1838C232.434 24.4844 231.191 24.3746 231.029 25.1924C230.751 26.6007 233.943 29.4324 237.34 29.2097C240.364 29.0114 242.611 26.4536 243.363 24.0447C243.867 22.431 244.085 19.6554 242.79 18.3057C242.608 18.1164 242.112 17.658 241.642 16.871C241.271 16.2482 240.782 15.4283 241.069 14.8624C241.374 14.2594 242.239 14.5768 242.79 14.0015C243.537 13.2214 242.649 11.9033 242.79 10.5582C243.028 8.28039 246.254 5.54084 249.674 5.96702C253.553 6.45048 254.977 10.6708 255.124 11.1321C255.429 12.088 255.423 13.0128 255.411 14.8624C255.393 17.5167 255.382 19.1803 254.55 20.8882C253.353 23.3447 251.829 23.0793 251.395 24.9055C250.719 27.7527 253.899 30.6123 254.263 30.9314C256.96 33.2967 261.034 34.0079 261.721 32.94C262.34 31.9776 259.623 30.4807 259.713 27.488C259.791 24.8946 261.889 24.104 261.434 22.323C260.933 20.3624 258.261 20.8097 257.132 18.5927C256.078 16.5233 258.02 15.3752 257.705 11.1321C257.639 10.2345 257.357 7.6584 255.697 5.10618C254.966 3.9818 254.223 2.83825 252.829 2.23672C251.269 1.56332 246.919 -0.364144 244.176 0.0604616V0.0604673Z" fill="#2F2E41"/>
<path d="M240.734 7.23412C240.945 9.011 243.612 9.88179 244.75 10.1036C245.232 10.1975 246.861 10.515 248.479 9.81664C249.077 9.55852 249.295 9.3251 249.913 9.24275C250.75 9.13129 251.172 9.44976 252.495 9.81664C253.966 10.2246 254.701 10.4286 255.076 10.1036C255.689 9.57229 255.218 7.83418 254.502 6.66023C253.179 4.48953 250.756 3.81735 249.626 3.50381C248.335 3.14562 245.715 2.41873 243.316 3.79076C242.995 3.9742 240.52 5.42879 240.734 7.23412V7.23412Z" fill="#2F2E41"/>
<path d="M280.219 166.89L284.359 166.988L286.667 148.38L280.557 148.236L280.219 166.89Z" fill="#FFB6B6"/>
<path d="M294.423 175.531C294.423 176.23 293.927 176.798 293.315 176.798H285.097C285.097 176.798 284.288 173.546 280.991 172.146L280.763 176.798H276.524L277.038 169.318C277.038 169.318 275.904 165.317 278.259 163.271C280.614 161.226 278.706 161.511 278.706 161.511L279.633 156.881L286.039 157.635L286.086 164.902L289.195 172.115L293.755 174.368C294.16 174.568 294.423 175.025 294.423 175.531L294.423 175.531H294.423Z" fill="#2F2E41"/>
<path d="M261.396 130.446L265.444 129.574L263.346 110.942L257.372 112.228L261.396 130.446Z" fill="#FFB6B6"/>
<path d="M277.224 135.53C277.387 136.211 277.037 136.878 276.442 137.021L268.451 138.94C268.451 138.94 266.906 135.967 263.373 135.376L264.237 139.952L260.115 140.942L258.869 133.55C258.869 133.55 256.833 129.924 258.645 127.385C260.458 124.846 258.67 125.568 258.67 125.568L258.49 120.85L264.895 120.087L266.637 127.142L271.343 133.43L276.303 134.556C276.744 134.656 277.106 135.039 277.224 135.53H277.224V135.53Z" fill="#2F2E41"/>
<path d="M253.654 22.2899L243.526 22.8528L240.713 28.4815L230.023 34.1102L231.711 61.8658L227.854 75.8262L228.335 79.7026L266.033 78.5768L263.782 36.9245L264.345 30.1701L257.03 27.9186L253.654 22.2899Z" fill="#319795"/>
<path d="M228.616 74.3552C228.616 74.3552 220.176 89.2735 228.616 91.3831C232.371 92.3216 236.348 92.954 239.607 93.3669C243.508 93.8613 247.1 91.182 247.746 87.3012L256.749 118.259L265.751 116.008L267.439 99.8927L278.378 110.835L277.005 154.846L287.132 154.283L297.823 106.439C297.823 106.439 298.385 103.062 289.946 98.5586C281.506 94.0557 266.314 79.4211 266.314 79.4211L240.432 71.5409L228.616 74.3552Z" fill="#2F2E41"/>
<path d="M246.34 84.2055L231.711 74.6368L249.716 55.4992C249.716 55.4992 259.843 51.5591 262.657 66.7566C265.47 81.954 267.158 95.4629 267.158 95.4629L246.34 84.2055Z" fill="#2F2E41"/>
<path d="M216.156 55.6389L216.797 51.2776C217.264 48.0993 215.157 45.3255 212.299 44.6427V42.8346C212.299 41.2803 211.039 40.0203 209.486 40.0203C207.932 40.0203 206.672 41.2803 206.672 42.8346V45.2465L195.982 47.515V44.5232C195.982 42.9689 194.722 41.7089 193.169 41.7089C191.615 41.7089 190.355 42.9689 190.355 44.5232V47.3666L189.293 47.0892C186.119 46.2609 183.611 49.9039 185.585 52.5244C185.611 52.5583 185.637 52.5922 185.663 52.6261C188.298 56.0154 189.051 59.0282 189.051 59.0282L187.169 69.1963L189.313 90.3363C189.589 93.061 191.933 95.1026 194.669 95.0012L215.483 94.23C218.217 94.1287 220.405 91.9237 220.48 89.1883C220.745 79.4446 220.775 58.2383 216.156 55.6388V55.6389Z" fill="#3F3D56"/>
<path d="M197.521 92.1668C197.229 92.1668 196.982 91.9417 196.961 91.6459L195.831 76.582C195.808 76.272 196.04 76.0019 196.35 75.9788C196.657 75.9546 196.93 76.1879 196.953 76.4979L198.083 91.5618C198.106 91.8719 197.873 92.142 197.564 92.1651C197.549 92.1662 197.535 92.1668 197.521 92.1668Z" fill="#FFB6B6"/>
<path d="M189.05 59.5913C188.776 59.5913 188.536 59.3898 188.495 59.11C188.45 58.8025 188.662 58.5167 188.97 58.4716L216.162 54.4848C216.47 54.4403 216.755 54.6524 216.8 54.96C216.846 55.2675 216.633 55.5534 216.325 55.5984L189.133 59.5852C189.105 59.5894 189.078 59.5913 189.05 59.5913Z" fill="#FFB6B6"/>
<path d="M29.3126 222.68C29.1231 222.36 28.303 222.703 28.1522 222.413C28.002 222.123 28.7639 221.683 29.1993 220.676C29.2778 220.495 29.7725 219.351 29.4062 218.998C28.7121 218.329 25.5354 221.09 24.4238 220.186C24.1798 219.988 24.0094 219.592 23.271 218.95C22.9772 218.694 22.7996 218.579 22.6277 218.622C22.3838 218.683 22.3644 219.009 22.1029 219.651C21.7106 220.614 21.4786 220.556 21.2501 221.324C21.0804 221.895 21.1192 222.226 20.9196 222.291C20.637 222.382 20.377 221.777 20.019 221.832C19.6536 221.887 19.4327 222.591 19.363 223.119C19.232 224.108 19.5954 224.761 19.7967 225.448C20.0155 226.194 20.1454 227.329 19.6401 228.936L14.6382 243.034C15.7424 240.141 18.9398 232.211 20.2833 229.264C20.6712 228.413 21.0994 227.55 21.9788 227.21C22.8253 226.882 23.988 227.077 25.4702 226.72C25.6434 226.679 26.1237 226.556 26.1842 226.274C26.2342 226.04 25.9516 225.91 25.995 225.691C26.0533 225.397 26.6089 225.393 27.2918 225.055C27.7733 224.816 28.0732 224.532 28.3312 224.288C28.409 224.214 29.565 223.106 29.3126 222.68H29.3126Z" fill="#F2F2F2"/>
<path d="M9.63374 230.102C9.42216 230.103 9.35351 230.604 9.16763 230.595C8.98241 230.585 8.9861 230.084 8.61791 229.58C8.55151 229.489 8.13309 228.916 7.85426 228.994C7.32575 229.142 7.76366 231.498 6.99966 231.783C6.83199 231.846 6.58863 231.815 6.06029 231.992C5.85011 232.063 5.74224 232.117 5.7137 232.213C5.67322 232.351 5.82787 232.454 6.06744 232.768C6.42672 233.239 6.33125 233.336 6.64226 233.67C6.87313 233.918 7.047 233.994 7.02109 234.111C6.98444 234.276 6.61259 234.229 6.53587 234.42C6.45757 234.616 6.73943 234.927 6.97804 235.114C7.42581 235.464 7.85103 235.474 8.24604 235.573C8.6753 235.681 9.26957 235.945 9.91198 236.656L15.3856 243.18C14.2849 241.803 11.3167 237.945 10.2586 236.435C9.9531 235.999 9.65332 235.54 9.73994 235.01C9.82334 234.5 10.2548 233.985 10.5073 233.154C10.5368 233.057 10.6154 232.786 10.4941 232.675C10.3939 232.583 10.2484 232.684 10.1535 232.6C10.0263 232.486 10.1849 232.213 10.2157 231.78C10.2375 231.474 10.1847 231.245 10.1392 231.048C10.1256 230.988 9.9154 230.101 9.63374 230.102V230.102Z" fill="#F2F2F2"/>
<path d="M13.8548 231.05L13.7273 229.912L13.7856 229.825C14.0551 229.426 14.1925 229.036 14.1941 228.667C14.1944 228.608 14.1916 228.549 14.1889 228.489C14.1779 228.252 14.1642 227.956 14.318 227.612C14.4043 227.42 14.6466 226.976 15.0109 227.031C15.109 227.045 15.1831 227.09 15.2395 227.143L15.2653 227.102C15.3788 226.929 15.4686 226.855 15.5551 226.783C15.6216 226.728 15.6903 226.672 15.798 226.538C15.8453 226.479 15.8821 226.427 15.9131 226.384C16.0074 226.252 16.1304 226.096 16.3475 226.098C16.5793 226.109 16.7008 226.301 16.7813 226.428C16.925 226.655 16.9901 226.818 17.0332 226.926C17.0489 226.966 17.0667 227.01 17.0758 227.024C17.1505 227.134 17.758 227.031 17.9868 226.994C18.5008 226.908 18.9456 226.834 19.1289 227.158C19.2602 227.39 19.1627 227.697 18.8303 228.094C18.7267 228.218 18.6165 228.312 18.5187 228.386C18.5997 228.434 18.6723 228.508 18.7017 228.625C18.7709 228.901 18.5338 229.177 17.9973 229.448C17.864 229.515 17.6846 229.605 17.4332 229.649C17.3148 229.669 17.2082 229.674 17.117 229.677C17.1151 229.73 17.1027 229.787 17.0706 229.846C16.9763 230.019 16.7802 230.101 16.4846 230.081C16.1593 230.064 15.8914 230.002 15.6552 229.948C15.4488 229.901 15.2711 229.86 15.1315 229.87C14.8727 229.891 14.6733 230.098 14.4392 230.367L13.8548 231.05L13.8548 231.05Z" fill="#F2F2F2"/>
<path d="M14.4461 224.272L13.3777 224.684L13.2795 224.65C12.8253 224.49 12.4136 224.456 12.0555 224.548C11.9986 224.563 11.9424 224.581 11.8851 224.598C11.6583 224.669 11.3764 224.757 11.0046 224.696C10.7973 224.661 10.3064 224.539 10.2671 224.173C10.2555 224.074 10.2803 223.991 10.317 223.923L10.2711 223.909C10.0749 223.843 9.9804 223.775 9.88935 223.709C9.81934 223.659 9.74717 223.606 9.59017 223.536C9.52131 223.505 9.46201 223.483 9.41215 223.464C9.26122 223.406 9.07852 223.327 9.02613 223.116C8.97794 222.889 9.13263 222.723 9.23499 222.613C9.41752 222.416 9.55886 222.312 9.65263 222.242C9.68692 222.217 9.72545 222.189 9.73644 222.176C9.82378 222.076 9.57031 221.514 9.47612 221.303C9.26282 220.827 9.07825 220.415 9.34536 220.156C9.53634 219.97 9.85765 219.986 10.3262 220.207C10.4721 220.276 10.5909 220.359 10.687 220.435C10.7132 220.344 10.7665 220.255 10.8718 220.197C11.121 220.06 11.4485 220.219 11.8461 220.67C11.9453 220.782 12.0779 220.933 12.1837 221.165C12.2334 221.274 12.2652 221.376 12.291 221.464C12.3425 221.452 12.4009 221.45 12.4659 221.466C12.6573 221.513 12.7867 221.682 12.8426 221.973C12.9086 222.292 12.9165 222.567 12.9238 222.81C12.9305 223.021 12.9367 223.203 12.9812 223.336C13.067 223.581 13.318 223.722 13.6373 223.88L14.4461 224.272H14.4461Z" fill="#F2F2F2"/>
<path d="M13.8548 220.918L13.7273 219.78L13.7856 219.694C14.0551 219.295 14.1925 218.905 14.1941 218.535C14.1944 218.476 14.1916 218.417 14.1889 218.357C14.1779 218.12 14.1642 217.825 14.318 217.481C14.4043 217.289 14.6466 216.845 15.0109 216.9C15.109 216.913 15.1831 216.958 15.2395 217.011L15.2653 216.971C15.3788 216.797 15.4686 216.723 15.5551 216.652C15.6216 216.597 15.6903 216.54 15.798 216.406C15.8453 216.347 15.8821 216.296 15.9131 216.252C16.0074 216.121 16.1304 215.964 16.3475 215.967C16.5793 215.978 16.7008 216.17 16.7813 216.297C16.925 216.523 16.9901 216.686 17.0332 216.795C17.0489 216.834 17.0667 216.879 17.0758 216.893C17.1505 217.002 17.758 216.9 17.9868 216.862C18.5008 216.777 18.9456 216.702 19.1289 217.027C19.2602 217.259 19.1627 217.565 18.8303 217.963C18.7267 218.086 18.6165 218.18 18.5187 218.254C18.5997 218.302 18.6723 218.377 18.7017 218.493C18.7709 218.769 18.5338 219.046 17.9973 219.316C17.864 219.384 17.6846 219.474 17.4332 219.517C17.3148 219.538 17.2082 219.542 17.117 219.545C17.1151 219.598 17.1027 219.655 17.0706 219.714C16.9763 219.887 16.7802 219.97 16.4846 219.95C16.1593 219.933 15.8914 219.871 15.6552 219.816C15.4488 219.769 15.2711 219.729 15.1315 219.738C14.8727 219.759 14.6733 219.966 14.4392 220.235L13.8548 220.918L13.8548 220.918Z" fill="#F2F2F2"/>
<path d="M15.0191 243.015L14.7807 242.866L14.723 242.59L14.7807 242.866L14.5026 242.898C14.4982 242.872 14.4831 242.812 14.4603 242.72C14.3359 242.211 13.9564 240.662 13.64 238.222C13.4191 236.519 13.2941 234.768 13.2682 233.018C13.2424 231.264 13.3254 229.937 13.3919 228.87C13.4421 228.065 13.5031 227.299 13.563 226.552C13.7224 224.558 13.8727 222.674 13.7608 220.589C13.7361 220.123 13.6842 219.154 13.1182 218.123C12.7899 217.525 12.3377 216.994 11.774 216.546L12.1245 216.105C12.7468 216.601 13.2471 217.189 13.6117 217.853C14.2392 218.996 14.2957 220.052 14.3229 220.559C14.4367 222.682 14.2848 224.584 14.1238 226.597C14.0644 227.341 14.0034 228.104 13.9534 228.905C13.8875 229.962 13.8054 231.278 13.8309 233.009C13.8562 234.739 13.9798 236.468 14.1977 238.15C14.5103 240.558 14.8842 242.084 15.007 242.585C15.0724 242.853 15.0862 242.909 15.0191 243.015H15.0191Z" fill="#F2F2F2"/>
<path d="M10.742 217.44C10.719 217.44 10.6956 217.439 10.672 217.438C10.1929 217.412 9.74916 217.125 9.35299 216.585C9.16727 216.331 9.07221 216.042 8.88264 215.464C8.85324 215.375 8.71038 214.923 8.62357 214.301C8.5667 213.895 8.57384 213.725 8.65434 213.575C8.74363 213.408 8.88814 213.292 9.05078 213.213C9.04364 213.159 9.04941 213.104 9.07276 213.047C9.16864 212.812 9.4236 212.843 9.56151 212.858C9.63129 212.867 9.71838 212.878 9.81234 212.873C9.96015 212.866 10.0395 212.822 10.1599 212.756C10.275 212.693 10.4181 212.614 10.6305 212.571C11.0492 212.484 11.4 212.602 11.5157 212.641C12.1242 212.844 12.4243 213.317 12.7715 213.865C12.8407 213.975 13.0784 214.376 13.2353 214.924C13.3485 215.32 13.3325 215.496 13.2985 215.627C13.2292 215.895 13.0658 216.049 12.6506 216.389C12.2171 216.745 11.9995 216.923 11.8127 217.031C11.3778 217.282 11.1047 217.44 10.742 217.44L10.742 217.44Z" fill="#F2F2F2"/>
<path d="M343.956 158.554L344.215 138.44L336.497 136.316L336.73 158.557L334.954 174.992L335.001 175.009C334.256 175.758 333.652 176.953 333.395 178.366C332.926 180.944 333.786 183.26 335.316 183.539C336.846 183.818 338.467 181.953 338.936 179.375C339.129 178.317 339.095 177.306 338.885 176.458L338.954 176.484L343.956 158.554Z" fill="#A0616A"/>
<path d="M329.92 111.273C329.92 111.273 333.422 108.594 335.895 112.51C338.367 116.426 345.166 136.213 345.166 136.213C345.166 136.213 347.133 145.282 346.665 146.622C346.197 147.962 345.578 159.753 345.578 159.753L335.918 158L336.152 146.622L326.947 131.923L329.92 111.273V111.273Z" fill="#CCCCCC"/>
<path d="M265.223 103.968L278.761 118.842L285.85 115.123L270.501 99.031L260.583 85.8093L260.538 85.8282C260.57 84.7727 260.196 83.4867 259.42 82.2787C258.003 80.0743 255.794 78.9694 254.486 79.8108C253.177 80.6523 253.265 83.1214 254.682 85.3258C255.263 86.2307 255.979 86.9462 256.71 87.4219L256.642 87.4501L265.223 103.968H265.223Z" fill="#A0616A"/>
<path d="M308.519 128.93C308.519 128.93 307.788 133.28 303.309 132.107C298.83 130.934 280.358 121.119 280.358 121.119C280.358 121.119 272.733 115.835 272.16 114.537C271.588 113.238 263.993 104.2 263.993 104.2L272.248 98.8832L279.842 107.357L296.6 111.811L308.519 128.93V128.93Z" fill="#CCCCCC"/>
<path d="M311.084 99.9029C317.022 99.9029 321.835 95.0877 321.835 89.1478C321.835 83.2079 317.022 78.3927 311.084 78.3927C305.147 78.3927 300.333 83.2079 300.333 89.1478C300.333 95.0877 305.147 99.9029 311.084 99.9029Z" fill="#A0616A"/>
<path d="M329.944 277.559L323.272 277.559L320.098 251.812L329.946 251.812L329.944 277.559Z" fill="#A0616A"/>
<path d="M307.083 277.408C306.875 277.758 306.766 278.888 306.766 279.295C306.766 280.546 307.78 281.56 309.031 281.56H329.695C330.548 281.56 331.24 280.868 331.24 280.015V279.154C331.24 279.154 332.262 276.567 330.157 273.379C330.157 273.379 327.542 275.876 323.633 271.966L322.48 269.877L314.137 275.981L309.513 276.55C308.501 276.675 307.604 276.531 307.083 277.408H307.083Z" fill="#2F2E41"/>
<path d="M310.814 277.559L304.141 277.559L300.967 251.812L310.815 251.812L310.814 277.559Z" fill="#A0616A"/>
<path d="M287.953 277.408C287.745 277.758 287.635 278.888 287.635 279.295C287.635 280.546 288.649 281.56 289.9 281.56H310.564C311.418 281.56 312.109 280.868 312.109 280.015V279.154C312.109 279.154 313.132 276.567 311.027 273.379C311.027 273.379 308.411 275.876 304.503 271.966L303.35 269.877L295.007 275.981L290.382 276.55C289.37 276.675 288.473 276.531 287.953 277.408H287.953Z" fill="#2F2E41"/>
<path d="M334.677 165.822L291.352 168.073L300.917 266.012L310.483 265.449L313.859 206.348L315.265 185.241L321.003 263.829L330.738 263.761L334.677 165.822Z" fill="#2F2E41"/>
<path d="M321.842 102.78L305.434 102.217L294.447 113.147V148.951L290.156 171.45C290.156 171.45 319.013 168.636 324.671 174.265C330.329 179.893 340.514 175.953 340.514 175.953L335.422 146.185L333.159 111.786L321.842 102.78Z" fill="#CCCCCC"/>
<path d="M315.817 99.6844L306.671 97.5229L305.26 91.9756C305.26 91.9756 305.226 89.3607 303.992 89.0691C302.758 88.7774 300.581 86.9596 300.581 86.9596L302.69 83.5477C302.69 83.5477 297.608 82.9984 299.133 82.0555C300.659 81.1126 300.88 81.5374 301.096 79.2608C301.544 74.5504 315.952 75.2379 317.071 77.8224C317.071 77.8224 318.922 78.2599 319.865 79.7861C320.807 81.3122 321.279 82.0753 321.896 82.2212C322.513 82.367 322.838 83.7473 322.838 83.7473C322.838 83.7473 325.015 85.5652 324.252 86.0366C323.489 86.508 322.906 88.9771 322.906 88.9771C322.906 88.9771 324.937 91.4122 320.394 96.8557L317.974 100.751L315.817 99.6844V99.6844Z" fill="#2F2E41"/>
<path d="M327.562 115.502L328.203 111.141C328.67 107.962 326.563 105.189 323.705 104.506V102.698C323.705 101.143 322.445 99.8833 320.892 99.8833C319.338 99.8833 318.078 101.143 318.078 102.698V105.109L307.388 107.378V104.386C307.388 102.832 306.128 101.572 304.575 101.572C303.021 101.572 301.761 102.832 301.761 104.386V107.23L300.699 106.952C297.525 106.124 295.017 109.767 296.991 112.387C297.017 112.421 297.043 112.455 297.069 112.489C299.704 115.878 300.457 118.891 300.457 118.891L298.575 129.059L300.719 150.199C300.995 152.924 303.339 154.966 306.075 154.864L326.889 154.093C329.623 153.992 331.811 151.787 331.886 149.051C332.151 139.308 332.182 118.101 327.562 115.502V115.502Z" fill="#3F3D56"/>
<path d="M308.927 152.03C308.635 152.03 308.389 151.805 308.367 151.509L307.237 136.445C307.214 136.135 307.446 135.865 307.756 135.842C308.063 135.818 308.336 136.051 308.359 136.361L309.489 151.425C309.512 151.735 309.28 152.005 308.97 152.028C308.955 152.029 308.941 152.03 308.927 152.03Z" fill="#FFB6B6"/>
<path d="M300.456 119.454C300.182 119.454 299.942 119.253 299.901 118.973C299.856 118.665 300.068 118.38 300.376 118.335L327.568 114.348C327.876 114.303 328.162 114.515 328.207 114.823C328.252 115.13 328.039 115.416 327.732 115.461L300.539 119.448C300.511 119.452 300.484 119.454 300.456 119.454Z" fill="#FFB6B6"/>
<path d="M301.697 152.931L291.071 127.265L293.884 128.391L305.201 151.131L301.697 152.931Z" fill="#3F3D56"/>
<path d="M368 281.527C368 281.788 367.788 282 367.527 282H39.9486V281.054H367.527C367.788 281.054 368 281.266 368 281.527V281.527Z" fill="#E6E6E6"/>
<path d="M251.888 80.8677C253.712 82.5851 256.077 83.0352 257.17 81.8733C258.262 80.7113 257.668 78.3777 255.842 76.66C255.122 75.9638 254.246 75.4502 253.287 75.1622L245.464 67.9834L242.174 71.728L250.236 78.4075C250.583 79.3477 251.149 80.1913 251.888 80.8677Z" fill="#FFB6B6"/>
<path d="M245.192 43.6743C245.192 43.6743 235.654 31.7871 231.992 32.7029C227.491 33.8286 228.616 38.3316 223.96 50.3748C222.794 53.391 221.569 56.3141 223.923 58.5313L230.411 64.6445L244.243 76.3118L249.808 70.4843L238.753 56.2229L245.192 43.6743L245.192 43.6743Z" fill="#319795"/>
</g>
<defs>
<clipPath id="clip0_281_336">
<rect width="368" height="282" fill="white"/>
</clipPath>
</defs>
</svg>
