<svg width="1040" height="531" viewBox="0 0 1040 531" fill="none" xmlns="http://www.w3.org/2000/svg">
<path d="M241.637 50.109C241.264 47.1556 240.508 44.2633 239.39 41.5045C239.101 40.4496 238.383 39.5646 237.41 39.0657C236.766 38.8984 236.092 38.8909 235.445 39.0437L225.358 40.5872C224.513 40.6257 223.705 40.9399 223.056 41.4815C221.742 42.8632 223.036 45.088 222.996 46.9942C222.95 49.1377 221.046 50.8776 218.981 51.4532C216.873 51.8792 214.698 51.8522 212.601 51.3741L198.496 49.1822C202.65 47.8559 206.348 45.3885 209.167 42.0615C211.023 39.8626 212.01 35.7573 209.328 34.716C208.531 34.4972 207.7 34.4305 206.878 34.5193C200.487 34.5689 195.458 29.2333 189.476 26.986C181.621 24.2264 172.883 26.8314 167.821 33.4414L175.335 33.8037C176.042 33.7647 176.743 33.9516 177.336 34.3375C178.983 35.6904 176.936 38.2892 177.168 40.4077C177.469 43.1602 181.124 43.7479 183.879 44.0262C186.634 44.3046 190.129 46.5429 188.804 48.9741C174.957 53.7435 160.867 39.651 146.325 41.3857C142.644 41.8248 139.169 43.2707 135.575 44.1798C113.625 49.7336 90.9315 34.9154 68.5076 38.0537C63.5225 38.9035 58.623 40.1957 53.8672 41.9149C50.8153 42.917 47.6319 43.9999 45.4144 46.3239C43.1969 48.6479 42.3529 52.6223 44.4537 55.0524C38.6635 55.5292 32.8346 54.9752 27.2379 53.416C30.3207 55.1296 32.2223 58.3893 32.1966 61.9162C23.1559 63.3905 14.3545 66.0741 6.02934 69.895C7.58314 72.4789 9.39798 74.8964 11.4453 77.1098L0 84.4628C3.86678 85.437 5.866 90.7097 3.61733 94.0028C7.62674 92.2191 10.1116 87.6049 14.399 86.6694C17.2078 86.0565 20.0658 87.2056 22.7304 88.285C25.395 89.3644 28.3237 90.411 31.0821 89.6009C33.8405 88.7908 35.8751 85.2141 34.1223 82.9353C45.9125 79.4953 58.0974 77.5916 70.375 77.2713C71.3222 77.1525 72.2828 77.3348 73.1206 77.7924C74.7189 78.9012 74.2984 81.2962 74.2123 83.2395C74.1262 85.1828 75.6408 87.7368 77.3776 86.8609C75.3342 88.6328 77.0811 91.9686 79.0415 93.8319C81.0019 95.6952 83.3648 98.2662 82.1646 100.69C81.8513 101.323 81.32 101.829 81.0186 102.467C80.129 104.351 81.5415 106.548 83.2076 107.799C84.8737 109.05 86.9146 109.925 88.0719 111.657C89.2293 113.39 88.7037 116.423 86.6341 116.665L80.7518 109.196C78.742 111.28 77.3642 113.891 76.7781 116.726C83.0159 121.826 83.9541 132.205 78.7319 138.34C76.0633 141.475 72.2682 143.38 68.9559 145.826C65.6437 148.271 62.5788 151.753 62.5871 155.871C62.6015 162.984 62.0203 169.592 64.6858 176.187C69.6009 188.347 75.2755 200.186 81.6762 211.634C83.357 214.64 85.5294 217.935 88.9344 218.453C84.6311 207.977 80.7573 197.338 77.3129 186.536C79.5563 186.544 82.1488 186.722 83.4639 188.54C84.5529 190.045 84.319 192.091 84.6574 193.918C85.0878 195.688 85.8054 197.375 86.7818 198.912L107.331 235.517C109.035 238.551 110.989 241.809 114.245 243.038C116.326 243.823 118.735 243.675 120.65 244.806C122.152 245.693 123.164 247.267 124.695 248.102C129.023 250.463 135.043 245.935 139.089 248.754C140.245 249.56 140.981 250.841 142.047 251.764C145.783 255 151.912 252.835 156.226 255.249C159.005 256.804 160.446 259.915 161.929 262.735C165.643 269.797 171.652 276.715 179.611 277.278C182.111 277.454 184.665 276.98 187.109 277.537C189.553 278.093 191.959 280.225 191.566 282.701C190.894 286.945 192.991 291.592 192.428 295.852C191.402 303.611 180.396 307.021 179.45 314.791C179.243 316.492 179.567 318.248 179.162 319.913C178.666 321.954 177.133 323.616 176.588 325.644C175.556 329.489 178.31 333.314 181.336 335.901C184.362 338.487 187.971 340.717 189.625 344.337C191.373 348.164 190.514 352.626 191.083 356.794C192.324 365.895 200.185 372.641 208.274 376.991C210.738 378.316 213.385 379.6 214.98 381.899C217.062 384.9 216.855 388.856 217.55 392.441C219.253 401.223 226.645 408.459 226.855 417.401C227.004 423.757 223.471 429.524 221.36 435.521C217.356 447.148 218.616 459.943 224.811 470.567C226.39 473.233 228.278 475.746 229.395 478.636C231.388 483.794 230.742 489.657 232.579 494.872C235.009 501.766 241.685 507.461 241.046 514.743C244.077 521.037 250.77 524.13 257.5 526.003L269.561 529.361C271.871 530.004 274.284 530.652 276.636 530.186C278.987 529.721 281.232 527.768 281.171 525.371C275.256 524.037 269.152 522.619 264.276 519.015C259.4 515.41 256.06 508.992 257.91 503.218C258.768 500.54 260.593 497.448 258.858 495.236C257.864 493.969 256.048 493.638 254.927 492.482C253.179 490.68 253.78 487.651 255.036 485.478C256.293 483.304 258.109 481.361 258.616 478.902C259.14 476.085 257.857 473.238 255.4 471.764C257.636 470.92 259.67 469.615 261.37 467.934C262.94 466.141 263.665 463.377 262.43 461.338C266.098 461.804 270.427 462.031 272.835 459.226C274.758 456.985 274.625 453.636 273.866 450.783C273.106 447.931 271.822 445.16 271.782 442.208C280.243 442.609 288.721 442.321 297.135 441.348C295.919 437.251 293.154 433.788 289.427 431.695C293.238 431.05 296.709 426.488 297.913 422.816C299.117 419.143 298.81 415.143 298.066 411.35C297.78 410.374 297.741 409.342 297.952 408.347C298.381 406.979 299.724 406.145 300.967 405.431L319.882 394.568C321.01 394.003 322.033 393.247 322.906 392.335C324.888 390.008 324.594 386.494 323.58 383.61C322.565 380.726 320.94 378.015 320.549 374.983C319.38 365.915 329.086 359.409 332.362 350.874C333.648 347.524 333.91 343.883 334.159 340.304C334.426 336.46 334.446 331.994 331.494 329.517C328.664 327.142 324.243 327.672 321.283 325.463C318.568 323.438 317.632 319.505 314.666 317.869C311.973 316.383 308.597 317.328 305.601 316.63C300.328 315.399 297.009 309.321 291.623 308.759C288.584 308.441 285.145 309.927 282.654 308.157C280.46 306.597 280.372 303.463 279.954 300.804C278.455 292.338 271.84 285.702 263.379 284.175C260.246 283.673 256.836 283.864 254.17 282.142C251.471 280.398 250.234 277.134 248.114 274.72C244.697 270.828 239.315 269.446 234.274 268.261L213.769 263.44C210.129 262.584 205.436 262.131 203.483 265.319C202.905 266.533 202.495 267.821 202.266 269.146C200.765 274.063 196.263 277.452 191.122 277.534C189.404 274.603 186.619 272.448 183.35 271.521C181.271 270.941 179.046 270.877 177.062 270.024C174.88 268.959 173.232 267.042 172.507 264.723C171.782 262.405 172.043 259.891 173.23 257.772C175.66 253.444 174.89 248.026 171.351 244.547C167.864 241.416 162.82 240.659 158.144 240.973C156.919 238.301 158.967 235.286 161.173 233.344C163.38 231.402 166.059 229.493 166.54 226.593C167.296 222.031 161.475 218.567 157.056 219.927C152.637 221.287 149.817 225.579 147.952 229.811C146.883 232.238 145.973 234.795 144.286 236.842C142.598 238.889 139.881 240.354 137.311 239.697C133.672 238.767 132.267 234.444 131.461 230.776C130.381 225.854 129.294 220.864 129.52 215.83C129.747 210.796 131.444 205.628 135.156 202.22C141.204 196.667 150.484 197.211 158.647 198.097C156.718 195.924 157.195 192.262 159.259 190.216C161.47 188.251 164.509 187.505 167.379 188.221C169.839 188.733 172.055 190.058 173.671 191.983C175.99 194.811 176.65 198.63 178.403 201.84C180.157 205.05 184.1 207.789 187.327 206.066C190.114 204.579 190.557 200.714 189.863 197.631C189.169 194.549 187.696 191.551 187.947 188.402C188.426 182.392 194.656 178.775 200.153 176.3C205.651 173.825 211.945 170.496 212.816 164.531C212.846 163.363 213.066 162.207 213.469 161.111C214.078 160.142 214.925 159.345 215.93 158.796C231.974 148.193 248.285 137.461 266.622 131.667C267.576 131.366 267.688 131.701 268.66 131.464C270.021 130.678 269.12 128.502 267.815 127.626C266.51 126.75 264.766 126.078 264.435 124.541C264.192 123.412 264.858 122.303 265.03 121.16C265.455 118.353 262.097 115.762 259.489 116.884C258.016 114.933 260.931 112.666 263.288 112.018C270.365 110.07 277.629 108.883 284.958 108.478C285.804 108.343 286.67 108.491 287.424 108.897C288.655 109.75 288.498 111.705 287.625 112.922C286.753 114.139 285.396 114.904 284.309 115.933C281.888 118.292 280.982 121.803 281.961 125.038C285.787 126.985 289.946 128.988 294.184 128.302C298.421 127.617 302.182 122.856 300.191 119.053C298.336 115.512 292.764 114.714 291.806 110.833C290.685 106.289 297.117 102.248 295.668 97.7974C295.033 95.848 293.09 94.7008 291.6 93.2934C287.996 89.7614 286.934 84.378 288.925 79.7418C283.998 80.6086 278.957 79.031 275.403 75.5101C272.168 72.2459 269.588 67.0966 264.995 67.2426C260.78 67.3766 257.149 72.2939 253.208 70.7937C252.239 70.4247 251.216 69.6735 250.277 70.1136C249.653 70.5187 249.25 71.1879 249.184 71.9286C248.182 76.717 249.905 82.1728 247.295 86.3105C244.455 90.8132 237.886 91.4375 234.444 95.4978C232.575 97.7018 231.851 100.672 230.133 102.995C228.415 105.319 224.769 106.797 222.707 104.772C224.794 100.482 223.64 95.3201 219.927 92.3265C218.013 91.0778 215.95 90.0742 213.786 89.3394C211.368 88.3159 209.067 87.0338 206.925 85.5157C205.852 84.8683 204.98 83.9352 204.406 82.8208C203.953 81.4252 204.014 79.9134 204.578 78.5591C206.709 72.4508 212.048 68.0255 218.446 67.0654C221.19 66.692 224.385 66.8235 226.202 64.7321C227.163 63.6255 227.667 61.9524 229.062 61.503C229.955 61.3237 230.881 61.4378 231.703 61.8282L241.949 65.4344C243.092 65.9505 244.35 66.1586 245.598 66.038C246.882 65.865 247.816 64.7309 247.738 63.4376C247.411 61.7362 244.793 60.9197 245.031 59.2036C245.164 58.6475 245.463 58.1449 245.888 57.7622C253.375 49.7941 264.029 45.5867 274.94 46.29C276.233 48.4138 274.188 50.9287 272.486 52.7418C270.784 54.5548 269.417 57.7943 271.475 59.1898C272.318 59.6203 273.256 59.8315 274.203 59.8042C276.725 60.1456 279.176 60.8891 281.463 62.0065C285.004 63.5472 288.476 65.2329 291.881 67.0637C291.58 64.819 291.293 62.4542 292.144 60.3554C292.995 58.2565 295.413 56.6102 297.525 57.4276C299.56 58.2154 300.604 60.9106 302.773 61.1575C305.666 61.4869 306.807 57.2133 305.599 54.5644C304.39 51.9155 301.998 49.6975 301.798 46.7928C301.664 44.8333 302.409 42.4029 300.844 41.2163C300.287 40.8601 299.655 40.6384 298.997 40.5688L259.914 33.3766C257.593 32.9495 254.239 33.2769 254.136 35.6345C254.079 36.9505 255.255 38.2524 254.734 39.4624C254.178 40.7538 252.353 40.6357 251.023 41.0924C248.96 41.8011 247.925 44.2509 248.123 46.4233C248.486 48.5819 249.322 50.6334 250.571 52.4308C248.029 51.3676 244.179 51.1722 241.637 50.109Z" fill="#E2E2E2"/>
<path d="M310.127 13.6168L315.625 14.6731C313.578 14.5825 311.59 15.3777 310.171 16.8557C308.752 18.3338 308.038 20.3514 308.211 22.3932C313.359 24.113 318.972 22.4395 324.395 22.6681C329.818 22.8967 336.128 26.7704 335.202 32.1186C334.922 33.7358 333.988 35.3518 334.474 36.9194C334.814 38.0182 335.783 38.7978 336.33 39.8097C337.47 41.9184 336.559 44.5856 335.12 46.5025C333.68 48.4194 331.746 49.9488 330.483 51.9859C327.341 57.0525 329.126 63.6025 330.998 69.2628C331.539 71.4015 332.538 73.3972 333.926 75.1117C336.699 78.0599 341.218 78.3163 345.265 78.3753C348.21 78.4183 351.584 78.2728 353.447 75.9907C355.879 73.0113 354.178 68.3628 355.779 64.866C357.234 61.6903 360.938 60.3279 364.295 59.3616C370.444 57.5914 376.71 56.0864 382.524 53.4124C389.742 50.0921 396.489 44.9177 404.423 44.4903C406.649 44.3704 408.93 44.6331 411.074 44.0233C413.218 43.4134 415.255 41.5597 415.093 39.3364C414.954 37.4368 413.347 36.0419 412.091 34.6099C410.835 33.1779 409.849 30.9759 411.003 29.4609L431.8 25.5764C430.326 21.559 429.177 16.2679 432.565 13.6529C433.787 12.7094 435.423 12.3323 436.464 11.1917C438.237 9.24756 437.346 5.89865 435.298 4.2453C433.251 2.59195 430.483 2.20814 427.86 1.9903C418.741 1.23298 409.57 1.7334 400.434 2.23421C382.574 3.21319 364.714 4.19217 346.854 5.17113C343.259 5.3682 339.108 5.06713 335.81 6.29372C333.018 7.33215 331.034 9.2383 327.841 9.90801C321.947 11.1444 315.461 10.3077 310.127 13.6168Z" fill="#E2E2E2"/>
<path d="M999.077 476.052C997.582 476.459 996.122 476.983 994.71 477.619C991.586 479.209 989.46 482.229 986.648 484.323C983.958 486.327 980.719 487.427 977.539 488.496C976.604 489.323 977.033 490.988 978.049 491.715C979.14 492.336 980.392 492.617 981.645 492.523C984.948 492.596 988.428 492.628 991.322 491.032C992.952 489.975 994.478 488.764 995.878 487.416C999.261 484.593 1003.32 482.731 1007.35 480.931C1008.81 480.378 1010.16 479.569 1011.34 478.541C1013.87 476.052 1014.05 472.211 1010.4 471.363C1007.46 470.679 1001.88 475.145 999.077 476.052Z" fill="#E2E2E2"/>
<path d="M1030.81 455.312C1031.14 451.841 1029.86 448.41 1027.34 446.005C1027.3 449.433 1027.2 453.085 1025.27 455.919C1023.9 457.939 1021.74 459.303 1020.24 461.226C1018.73 463.15 1018.06 466.199 1019.83 467.887C1020.96 468.746 1022.33 469.219 1023.75 469.238C1027.26 469.651 1031.33 469.882 1033.79 467.343C1035.14 465.958 1035.79 463.905 1037.43 462.887C1038.05 462.63 1038.59 462.24 1039.03 461.744C1039.71 460.667 1038.63 459.248 1037.42 458.86C1036.21 458.472 1034.87 458.654 1033.66 458.286C1032.44 457.917 1031.32 456.548 1031.95 455.44" fill="#E2E2E2"/>
<path d="M974.408 329.651C972.565 330.099 970.656 330.212 968.772 329.983C965.644 329.408 963.209 327.051 960.684 325.117C954.68 320.546 947.382 317.996 939.838 317.834C932.976 317.704 926.049 319.564 919.309 318.266C919.749 320.716 921.845 322.553 924.082 323.645C926.318 324.737 928.786 325.286 931.033 326.356C934.631 328.086 937.485 331.055 939.072 334.719C939.796 336.408 940.251 338.247 941.347 339.722C943.588 342.736 947.835 343.398 951.583 343.152C956.47 342.83 961.573 341.425 966.12 343.246C969.598 344.638 972.087 347.682 974.991 350.049C977.895 352.416 981.985 354.173 985.319 352.465C978.21 350.164 973.424 343.507 973.505 336.035C976.775 336.336 986.195 336.22 985.688 330.663C985.258 325.953 977.216 329.143 974.408 329.651Z" fill="#E2E2E2"/>
<path d="M923.075 374.808C923.656 371.623 926.832 368.811 925.842 365.728C925.158 363.596 922.687 362.544 920.448 362.491C918.21 362.439 916.011 363.106 913.773 363.168C912.317 363.091 910.856 363.112 909.403 363.23C904.96 363.961 902.222 368.617 898.035 370.273C895.49 371.279 892.63 371.087 889.982 371.783C883.972 373.363 880.17 379.042 875.969 383.621C869.18 390.986 860.337 396.143 850.584 398.424C847.167 399.215 843.494 399.721 840.778 401.941C837.181 404.88 836.296 409.918 835.495 414.493C833.285 427.129 829.906 439.533 825.402 451.544L839.673 453.366C842.386 453.713 845.197 454.052 847.812 453.248C849.711 452.531 851.511 451.573 853.165 450.396C859.521 446.45 866.634 443.883 874.044 442.86C877.781 442.347 881.7 442.253 885.206 443.642C888.713 445.031 891.722 448.181 892.016 451.941C895.106 450.98 898.474 451.799 900.778 454.072C903.013 456.349 904.476 459.27 904.961 462.423C905.337 464.376 905.713 466.715 907.525 467.534C909.003 468.202 910.698 467.483 912.315 467.353C917.802 466.914 922.354 473.312 927.747 472.21C933.531 471.028 934.951 462.367 940.593 460.632C943.833 459.635 948.379 460.847 949.931 457.833C951.298 455.176 948.569 452.11 948.851 449.135C949.197 445.472 953.518 443.917 956.849 442.354C968.333 436.965 973.783 421.509 968.218 410.109C964.921 403.355 958.433 398.038 957.235 390.618C956.313 384.91 958.564 378.253 954.924 373.759C953.072 371.473 949.937 370.211 948.836 367.484C948.142 365.767 948.421 363.819 948.048 362.005C947.674 360.192 946.092 358.295 944.301 358.765C939.102 360.129 937.443 376.189 934.66 380.092C930.429 386.023 921.743 382.116 923.075 374.808Z" fill="#E2E2E2"/>
<path d="M835.531 335.709C833.754 335.211 831.814 334.72 830.112 335.432C828.409 336.144 827.415 338.643 828.782 339.883C839.47 339.467 850.224 339.054 860.822 340.505C873.032 342.177 885.116 346.32 897.379 345.101C890.374 343.035 883.253 341.382 876.053 340.153L864.047 337.859C860.827 337.185 857.572 336.682 854.298 336.353C847.449 335.787 842.265 337.597 835.531 335.709Z" fill="#E2E2E2"/>
<path d="M846.241 298.493C845.354 298.419 844.255 298.355 843.796 299.118C843.357 299.847 843.859 300.81 843.623 301.627C843.301 302.744 841.839 303.029 840.686 302.877C839.534 302.725 838.288 302.361 837.267 302.917C836.204 303.643 835.747 304.984 836.147 306.209C836.564 307.392 837.239 308.468 838.123 309.359C839.633 311.262 841.353 312.987 843.251 314.502C846.924 317.214 851.901 318.521 854.215 322.457C854.541 323.22 855.043 323.895 855.679 324.428C856.79 325.132 858.238 324.596 859.434 324.05L863.626 322.134C864.381 321.862 865.055 321.404 865.586 320.802C866.544 319.502 865.955 317.654 865.152 316.255C864.348 314.855 863.319 313.406 863.491 311.801C863.799 308.939 867.478 307.845 868.991 305.396C870.516 302.928 869.523 299.748 869.699 296.852C869.905 293.465 872.033 289.06 868.609 286.53C865.699 284.379 862.918 286.366 860.829 288.74C856.423 293.747 854.34 299.169 846.241 298.493Z" fill="#E2E2E2"/>
<path d="M871.677 247.9C873.108 250.64 876.091 252.276 877.652 254.944C879.344 257.837 879.151 261.574 880.986 264.378C882.869 267.254 886.658 268.782 887.714 272.053C888.866 275.625 886.251 279.967 888.336 283.088C889.122 284.119 890.305 284.774 891.596 284.892C892.887 285.011 894.169 284.583 895.13 283.712C896.958 281.722 896.867 278.637 894.925 276.758C893.69 275.633 891.918 275.146 890.887 273.832C890.35 273.073 889.993 272.203 889.841 271.286C889.279 268.641 889.369 265.899 890.103 263.296C890.379 262.636 890.449 261.908 890.304 261.207C889.84 259.858 888.014 259.762 886.732 259.137C883.821 257.716 883.892 253.607 884.4 250.408C884.062 252.538 876.475 248.915 875.68 247.708C874.102 245.312 874.961 240.688 874.648 238.04C871.241 239.681 869.927 244.55 871.677 247.9Z" fill="#E2E2E2"/>
<path d="M795.24 290.052C793.839 288.484 791.73 286.844 789.853 287.79C788.42 288.511 788.026 290.493 788.588 291.995C789.272 293.454 790.325 294.71 791.643 295.637C795.555 298.864 799.768 301.776 803.182 305.527C809.29 312.24 812.526 321.298 819.169 327.482C820.504 328.915 822.272 329.872 824.203 330.206C826.138 330.386 828.312 329.147 828.534 327.216C828.717 325.625 827.608 324.202 826.525 323.023C823.944 320.216 821.119 317.632 818.683 314.7C817.558 313.573 816.851 312.096 816.678 310.513C816.666 308.934 818.106 307.281 819.636 307.672C817.775 307.197 816.395 304.096 813.664 303.514C811.382 303.027 810.83 304.44 808.113 303.275C802.932 301.053 798.868 294.113 795.24 290.052Z" fill="#E2E2E2"/>
<path d="M509.323 209.652C509.686 211.599 510.043 213.649 509.405 215.523C508.767 217.398 506.76 218.965 504.864 218.39C503.394 217.944 502.544 216.465 501.5 215.338C495.691 209.068 482.587 212.698 478.999 204.941C477.535 201.775 478.53 197.982 477.531 194.639C476.235 190.667 472.417 188.073 468.246 188.332C466.397 188.599 464.596 189.136 462.903 189.927C451.559 194.47 439.649 197.449 427.502 198.781C425.193 198.922 422.91 199.337 420.699 200.019C415.712 201.827 412.304 206.451 409.878 211.17C407.453 215.888 405.662 220.997 402.411 225.189C398.993 229.595 394.205 232.68 389.738 236.017C388.017 237.126 386.584 238.628 385.557 240.399C384.589 242.387 384.643 244.7 384.718 246.91L385.631 273.754C385.749 277.206 385.896 280.782 387.442 283.872C389.371 287.731 393.183 290.258 395.828 293.666C398.527 297.169 399.933 301.497 399.808 305.917C399.751 307.694 399.575 309.796 400.959 310.912C401.801 311.458 402.786 311.741 403.789 311.726L440.101 314.698C446.488 315.221 453.567 316.08 457.737 320.947C459.706 323.243 461.287 326.546 464.301 326.793C465.594 326.898 466.853 326.367 468.146 326.265C471.409 326.007 474.276 328.483 476.085 331.211C478.823 335.369 480.066 340.334 479.609 345.292C479.313 348.403 478.348 351.429 478.14 354.548C477.348 366.415 487.409 376.726 487.604 388.619C487.719 395.614 484.398 402.15 481.16 408.352C486.386 416.268 482.107 426.809 484.187 436.063C486.161 444.843 493.481 451.716 495.305 460.528C496.14 464.562 496.189 469.526 499.746 471.604C501.307 472.365 503.037 472.711 504.771 472.61C515.227 472.734 525.564 470.381 534.936 465.743C539.334 463.56 543.893 460.301 544.661 455.451C545.281 451.54 543.297 447.165 545.316 443.758C547.695 439.743 553.789 440.061 557.289 436.974C562.968 431.966 558.54 422.415 560.841 415.201C562.909 408.717 570.028 405.272 573.557 399.453C574.946 396.95 575.942 394.249 576.512 391.444C578.129 384.74 579.135 377.903 579.519 371.017C579.613 366.834 579.921 362.658 580.443 358.506C584.248 334.868 607.616 319.04 615.203 296.332C615.928 294.163 616.268 291.275 614.339 290.048C613.194 289.502 611.897 289.366 610.664 289.663L593.926 291.773C591.846 292.036 589.643 292.281 587.733 291.417C585.824 290.553 584.456 288.138 585.468 286.304C588.311 281.154 582.463 274.646 579.865 269.369C572.868 255.158 564.536 241.645 554.98 229.012C554.369 228.362 553.986 227.531 553.889 226.643L558.64 226.802C557.036 221.047 554.39 214.75 548.8 212.645C545.649 211.459 542.161 211.869 538.8 212.053C529.172 212.579 518.851 211.125 509.323 209.652Z" fill="#E2E2E2"/>
<path d="M559.317 38.9762C561.836 41.6514 564.659 44.4879 568.304 44.9542C574.742 45.7778 579.371 39.1204 582.318 33.3376C582.545 36.403 585.171 38.7309 588.242 38.5888C589.831 38.3214 591.347 37.7284 592.697 36.8471C605.452 29.8763 619.74 26.1829 634.275 26.0986C633.986 23.8179 635.466 21.6873 637.704 21.1622C640.66 20.5763 643.322 23.1315 644.748 25.7857C646.173 28.44 647.062 31.5165 649.328 33.5033C651.593 35.4901 655.978 35.4035 656.873 32.5265C657.732 29.7644 654.854 27.4089 652.464 25.7805C650.073 24.152 647.553 21.1381 649.163 18.7349C661.376 16.0314 673.665 13.3177 686.163 12.7803C688.29 12.8544 690.411 12.4891 692.391 11.7074C694.297 10.7721 695.812 8.6491 695.299 6.58889C689.721 7.90019 683.904 5.70601 680.581 1.03733C697.922 -0.393671 716.366 -1.6134 731.734 6.54626C733.578 10.5053 724.179 13.7991 726.694 17.3699C727.496 18.5088 729.103 18.6424 730.496 18.6682C741.175 18.8665 751.916 19.0609 762.475 17.4486C766.334 16.8594 770.231 16.0276 774.106 16.5054C780.558 17.3012 786.077 21.6066 792.426 23.0104C795.009 23.5817 797.906 23.6011 800.085 22.0983C802.263 20.5954 803.199 17.1735 801.414 15.2198C807.391 9.36169 817.311 10.8136 825.197 13.6182C833.082 16.4228 840.552 20.9456 848.898 21.5707C854.883 22.019 860.951 20.4092 866.864 21.4325C870.58 22.0755 874.039 23.7287 877.671 24.7443C884.54 26.6653 891.807 26.2598 898.939 26.3523C917.137 26.5975 935.136 30.174 952.045 36.9048C954.245 37.621 956.26 38.8117 957.949 40.3928C959.522 42.0776 960.324 44.6958 959.267 46.7442L941.794 44.1912C943.441 47.432 947.7 47.9843 951.158 49.1023C954.617 50.2203 958.203 54.0399 956.125 57.0219C952.377 55.8287 948.981 59.5755 947.088 63.0229C945.195 66.4702 942.888 70.5989 938.961 70.8089C935.444 70.9969 931.191 68.0024 928.898 70.6761C932.065 74.6713 934.777 79.0069 936.984 83.6027C939.248 88.3208 940.861 94.2658 937.8 98.5108C937.319 99.2686 936.588 99.835 935.735 100.113C933.235 100.746 931.61 97.6874 929.818 95.8338C927.559 93.498 924.142 92.8364 921.083 91.7409C918.023 90.6454 914.801 88.4904 914.561 85.2497C914.412 83.2334 915.477 81.3591 916.261 79.4955C917.579 76.3544 918.155 72.9519 917.945 69.5519C917.774 66.8167 917.007 63.9714 915.042 62.0603C913.078 60.1492 909.687 59.5429 907.578 61.2933C906.594 62.11 905.805 63.4165 904.527 63.4653C902.269 63.5517 900.536 59.6153 898.719 60.959C898.932 62.3908 898.636 63.8519 897.881 65.0869C892.46 69.8013 884.133 67.8068 877.144 69.4722C873.821 70.4232 870.64 71.8126 867.684 73.6038C866.578 74.0767 865.637 74.8665 864.98 75.8736C864.107 77.5688 865.069 79.7398 866.607 80.867C868.237 81.867 870.069 82.4924 871.971 82.698C880.491 84.3116 889.134 86.8093 895.861 92.2815C902.587 97.7536 906.998 106.799 904.869 115.205L888.068 99.1514C888.706 105.892 889.069 112.651 889.155 119.429C889.263 120.752 889.082 122.083 888.622 123.329C887.424 125.975 884.178 126.865 881.334 127.449C879.733 127.753 878.339 128.726 877.502 130.123C876.665 131.521 876.464 133.209 876.951 134.764C877.961 138.058 880.482 140.626 882.789 143.185C885.096 145.745 887.367 148.653 887.669 152.086C887.971 155.519 885.381 159.388 881.944 159.149C879.338 158.968 877.405 156.635 876.293 154.271C875.182 151.907 874.52 149.274 872.85 147.265C867.795 141.186 856.441 143.79 851.913 137.309C849.566 139.971 848.764 143.659 849.795 147.055C851.902 145.736 854.786 146.962 856.368 148.878C857.951 150.794 858.698 153.251 859.941 155.403C861.618 158.308 864.288 160.882 864.522 164.228C864.46 165.493 864.481 166.761 864.586 168.023C865.002 170.051 866.715 171.506 867.903 173.201C870.667 177.143 870.531 182.56 868.749 187.033C866.967 191.507 863.766 195.245 860.596 198.869C855.058 205.199 849.407 211.492 842.842 216.749C840.969 218.249 838.97 219.723 837.803 221.821C836.636 223.918 836.576 226.861 838.369 228.456C837.086 228.521 834.786 229.152 833.503 229.216C833.052 224.07 832.954 218.898 833.209 213.739C828.147 211.308 822.696 217.818 823.349 223.396C824.002 228.974 828.037 233.45 830.909 238.276C833.01 241.805 834.571 245.919 833.869 249.966C833.168 254.012 829.556 257.745 825.465 257.389C818.957 256.821 816.235 247.478 809.791 246.409C809.222 246.276 808.626 246.335 808.095 246.578C807.138 247.103 806.972 248.383 806.918 249.473C806.654 254.822 806.426 260.383 808.514 265.315C811.569 272.53 819.461 278.59 817.805 286.248C808.887 282.103 804.251 272.102 802.146 262.496C800.04 252.889 799.69 242.805 795.916 233.723C793.05 237.396 787.027 234.36 784.409 230.507C781.927 226.854 780.399 222.628 777.991 218.926C775.583 215.224 771.893 211.909 767.482 211.706C762.856 211.492 758.845 214.666 755.317 217.666C752.416 220.132 749.438 222.695 747.742 226.104C745.274 231.065 745.92 236.913 745.801 242.453C745.672 248.441 744.403 254.76 740.322 259.144C736.24 263.528 728.706 265.055 724.204 261.104C721.854 259.041 720.716 255.959 719.702 253.001C714.816 238.741 710.747 224.213 707.514 209.49C706.758 212.85 703.807 217.182 700.988 215.202C700.355 214.67 699.843 214.01 699.484 213.265C694.226 204.353 684.488 199.007 674.649 195.802C664.81 192.597 654.459 191.102 644.729 187.579C639.277 185.604 634.069 183.01 629.208 179.848C626.683 183.557 626.397 188.351 628.462 192.334C630.62 196.156 635.504 198.367 639.685 197.031C641.845 196.341 643.67 194.841 645.813 194.1C647.957 193.36 650.834 193.723 651.772 195.789C652.669 197.766 651.313 200.157 651.986 202.221C653.01 205.365 657.752 205.607 659.41 208.468C660.643 210.596 659.628 213.423 657.867 215.14C656.105 216.858 653.756 217.8 651.605 218.995C644.629 222.875 639.668 229.497 633.572 234.649C627.475 239.801 618.873 243.563 611.607 240.258C613.339 231.488 602.892 225.049 600.97 216.319C600.337 213.445 600.665 210.393 599.762 207.592C598.455 203.538 594.858 200.75 591.907 197.678C584.676 190.067 580.827 179.857 581.234 169.367C581.393 165.759 582.056 162.092 581.234 158.575C580.412 155.058 577.5 151.654 573.892 151.814C565.651 152.178 555.269 152.791 550.945 145.766C549.402 143.258 548.731 139.586 550.962 137.665C552.536 136.31 554.859 136.438 556.926 136.641L575.494 138.467C579.837 138.895 584.532 139.247 588.258 136.977C591.985 134.707 593.6 128.68 590.149 126.009C587.628 124.057 583.11 124.163 582.377 121.06C581.767 118.475 584.628 115.543 583.083 113.383C581.975 111.835 579.484 112.264 577.975 113.425C576.466 114.586 575.371 116.284 573.682 117.163C570.719 118.705 567.179 117.237 563.991 116.24C560.803 115.243 556.53 115.158 554.984 118.119C553.254 121.43 556.517 125.769 554.801 129.087C552.532 133.473 544.849 130.976 541.662 134.749C538.006 139.079 544.15 145.536 542.917 151.067C539.715 152.653 535.914 152.439 532.91 150.505C529.95 148.492 528.336 145.014 528.709 141.454C529.014 138.966 530.312 136.426 529.442 134.074C528.74 132.173 526.831 131.041 525.057 130.061L507.012 120.09C505.337 123.198 507.455 127.05 510.104 129.385C512.753 131.719 516.07 133.477 517.81 136.549C520.095 140.967 518.545 146.4 514.272 148.947C513.75 149.307 513.096 149.421 512.483 149.259C511.902 148.917 511.483 148.354 511.323 147.699C508.14 139.551 503.36 131.518 495.717 127.262C488.075 123.006 477.094 123.881 472.083 131.051C470.893 132.754 470.094 134.695 469.057 136.495C463.548 146.061 451.737 150.59 440.703 150.294C439.624 150.354 438.55 150.102 437.61 149.567C435.827 148.336 435.907 145.722 436.18 143.572L437.338 134.448C437.571 132.616 437.908 130.591 439.358 129.447C441.402 127.835 444.351 128.852 446.954 128.815C450.994 128.625 454.485 125.931 455.692 122.071C456.764 118.193 455.601 114.04 452.672 111.282C451.479 110.161 449.877 108.753 450.507 107.243C451.016 106.397 451.874 105.819 452.849 105.666C457.525 104.308 462.466 103.952 467.064 102.35C471.662 100.747 476.121 97.4693 477.21 92.7234C477.544 91.269 477.696 89.5071 479.002 88.786C479.658 88.5093 480.362 88.3654 481.073 88.3629C486.241 87.6278 489.991 83.0691 489.718 77.8571C491.921 76.3173 495.009 77.45 497.14 79.0877C499.272 80.7255 501.154 82.8892 503.748 83.5952C508.583 84.9109 513.254 80.6308 518.264 80.6109C520.371 80.6026 522.552 81.3475 524.534 80.6332C526.543 79.9091 527.743 77.909 529.286 76.4313C530.828 74.9536 533.534 74.0523 534.958 75.6441L533.745 66.6621C538.686 67.9103 543.925 66.9631 548.116 64.064L532.444 58.7687C531.898 58.6324 531.394 58.3633 530.978 57.9851C529.839 56.7582 530.97 54.8463 531.897 53.4516C534.113 50.1152 534.485 44.6193 530.841 42.9583C528.353 41.8245 525.497 43.1854 523.109 44.5169L511.67 50.8949C511.307 53.0691 513.966 54.3014 515.613 55.7659C517.654 57.5796 518.37 60.461 517.415 63.0187C516.46 65.5764 514.032 67.2843 511.302 67.3177C512.828 69.3014 513.369 71.8711 512.773 74.3017L505.077 74.8552C504.213 75.029 503.316 74.8538 502.581 74.368C501.758 73.6369 501.869 72.3559 501.679 71.2716C501.218 68.6547 498.656 66.8206 496.041 66.3503C493.425 65.88 490.75 66.4828 488.161 67.078C487.061 67.4737 485.853 67.4459 484.773 66.9999C484.154 66.5975 483.683 66.0034 483.433 65.3084C482.298 62.5557 483.359 59.3201 485.182 56.966C487.006 54.6119 489.502 52.891 491.744 50.9312C497.105 46.2274 501.044 40.1181 503.115 33.2936C507.352 31.5185 511.738 29.1066 515.975 27.3314C522.507 24.0243 529.832 22.6051 537.126 23.2333L551.474 23.5074C555.722 23.5885 560.085 23.6925 564.013 25.312C567.941 26.9315 571.393 30.4342 571.664 34.6743C571.83 35.6501 571.483 36.6428 570.744 37.3018C570.189 37.6045 569.561 37.7461 568.93 37.7106C564.968 37.8499 563.279 38.837 559.317 38.9762Z" fill="#E2E2E2"/>
<path d="M149.234 114C151.906 110.656 158 102.552 158 98C158 92.4792 153.521 88 148 88C142.479 88 138 92.4792 138 98C138 102.552 144.094 110.656 146.766 114C147.406 114.797 148.594 114.797 149.234 114ZM148 101.333C146.161 101.333 144.667 99.8385 144.667 98C144.667 96.1615 146.161 94.6667 148 94.6667C149.839 94.6667 151.333 96.1615 151.333 98C151.333 99.8385 149.839 101.333 148 101.333Z" fill="#319795"/>
<path d="M447.234 251C449.906 247.656 456 239.552 456 235C456 229.479 451.521 225 446 225C440.479 225 436 229.479 436 235C436 239.552 442.094 247.656 444.766 251C445.406 251.797 446.594 251.797 447.234 251ZM446 238.333C444.161 238.333 442.667 236.839 442.667 235C442.667 233.161 444.161 231.667 446 231.667C447.839 231.667 449.333 233.161 449.333 235C449.333 236.839 447.839 238.333 446 238.333Z" fill="#319795"/>
<path d="M258.234 372C260.906 368.656 267 360.552 267 356C267 350.479 262.521 346 257 346C251.479 346 247 350.479 247 356C247 360.552 253.094 368.656 255.766 372C256.406 372.797 257.594 372.797 258.234 372ZM257 359.333C255.161 359.333 253.667 357.839 253.667 356C253.667 354.161 255.161 352.667 257 352.667C258.839 352.667 260.333 354.161 260.333 356C260.333 357.839 258.839 359.333 257 359.333Z" fill="#319795"/>
<path d="M646.234 91C648.906 87.6562 655 79.5521 655 75C655 69.4792 650.521 65 645 65C639.479 65 635 69.4792 635 75C635 79.5521 641.094 87.6562 643.766 91C644.406 91.7969 645.594 91.7969 646.234 91ZM645 78.3333C643.161 78.3333 641.667 76.8385 641.667 75C641.667 73.1615 643.161 71.6667 645 71.6667C646.839 71.6667 648.333 73.1615 648.333 75C648.333 76.8385 646.839 78.3333 645 78.3333Z" fill="#319795"/>
<path d="M852.234 312C854.906 308.656 861 300.552 861 296C861 290.479 856.521 286 851 286C845.479 286 841 290.479 841 296C841 300.552 847.094 308.656 849.766 312C850.406 312.797 851.594 312.797 852.234 312ZM851 299.333C849.161 299.333 847.667 297.839 847.667 296C847.667 294.161 849.161 292.667 851 292.667C852.839 292.667 854.333 294.161 854.333 296C854.333 297.839 852.839 299.333 851 299.333Z" fill="#319795"/>
<path d="M565.234 345C567.906 341.656 574 333.552 574 329C574 323.479 569.521 319 564 319C558.479 319 554 323.479 554 329C554 333.552 560.094 341.656 562.766 345C563.406 345.797 564.594 345.797 565.234 345ZM564 332.333C562.161 332.333 560.667 330.839 560.667 329C560.667 327.161 562.161 325.667 564 325.667C565.839 325.667 567.333 327.161 567.333 329C567.333 330.839 565.839 332.333 564 332.333Z" fill="#319795"/>
<path d="M147.5 115C451.277 93.8061 605.265 137.969 853 309" stroke="#319795" stroke-dasharray="7 7"/>
<path d="M148 116.5C217.333 124.333 373.6 162.1 444 250.5" stroke="#319795" stroke-dasharray="7 7"/>
<path d="M257 372.5C355.5 299.667 612 185.2 850 310" stroke="#319795" stroke-dasharray="7 7"/>
<path d="M564.5 344.5C598.667 309.667 703.7 254.2 850.5 311" stroke="#319795" stroke-dasharray="7 7"/>
<path d="M447.5 251C457.333 202.167 510.2 101.8 643 91" stroke="#319795" stroke-dasharray="7 7"/>
</svg>
