<svg width="189" height="113" viewBox="0 0 189 113" fill="none" xmlns="http://www.w3.org/2000/svg">
<rect y="22.5301" width="163.547" height="89.8969" fill="url(#paint0_linear_15_818)"/>
<path d="M14.0864 52.8567C14.8189 52.8567 15.4106 53.4617 15.4106 54.2106V55.721C15.4769 55.7294 15.5389 55.7379 15.6051 55.7506C16.0438 55.8183 17.3473 56.034 17.8853 56.1737C18.593 56.3556 19.0233 57.0918 18.8454 57.8195C18.6674 58.5472 17.9474 58.9829 17.2356 58.801C16.8508 58.6995 15.6796 58.5049 15.212 58.4329C13.8836 58.2299 12.7456 58.3314 11.9635 58.6402C11.2062 58.9364 10.8917 59.3553 10.8089 59.8249C10.7303 60.2776 10.7882 60.5357 10.8627 60.6964C10.9413 60.8657 11.0944 61.0561 11.3965 61.2634C12.0669 61.7203 13.0974 62.0207 14.4299 62.393L14.5457 62.4268C15.721 62.7526 17.1611 63.1546 18.2288 63.878C18.8123 64.2757 19.3585 64.813 19.6979 65.5577C20.0413 66.3108 20.1158 67.1569 19.9586 68.0581C19.673 69.6658 18.5888 70.7404 17.2439 71.3031C16.6769 71.5401 16.0603 71.6924 15.4065 71.7685V73.1647C15.4065 73.9136 14.8147 74.5186 14.0823 74.5186C13.3498 74.5186 12.758 73.9136 12.758 73.1647V71.6882C12.7415 71.6839 12.7208 71.6839 12.7042 71.6797H12.6959C11.6862 71.5189 10.0268 71.0747 8.90944 70.567C8.23905 70.2624 7.94109 69.4627 8.23905 68.7816C8.537 68.1004 9.31913 67.7916 9.98539 68.0962C10.8503 68.4896 12.2738 68.8746 13.0974 69.01C14.4175 69.2089 15.5058 69.0946 16.2424 68.7858C16.9418 68.4939 17.2604 68.0708 17.3515 67.5631C17.4301 67.1104 17.3722 66.8523 17.2977 66.6915C17.2191 66.5223 17.0659 66.3319 16.7638 66.1246C16.0935 65.6677 15.063 65.3673 13.7305 64.995L13.6146 64.9611C12.4394 64.6353 10.9993 64.2334 9.93159 63.5099C9.3481 63.1122 8.80185 62.5749 8.46251 61.8303C8.11904 61.0772 8.04455 60.231 8.2018 59.3299C8.49976 57.6841 9.65847 56.6348 11.0241 56.1017C11.5621 55.8902 12.1497 55.7548 12.7622 55.6787V54.2106C12.7622 53.4617 13.3539 52.8567 14.0864 52.8567Z" fill="#166678"/>
<path d="M14.0864 82.6418C14.8189 82.6418 15.4106 83.2468 15.4106 83.9957V85.5061C15.4769 85.5145 15.5389 85.523 15.6051 85.5357C16.0438 85.6034 17.3473 85.8191 17.8853 85.9588C18.593 86.1407 19.0233 86.8769 18.8454 87.6046C18.6674 88.3323 17.9474 88.768 17.2356 88.5861C16.8508 88.4846 15.6796 88.29 15.212 88.218C13.8836 88.0149 12.7456 88.1165 11.9635 88.4253C11.2062 88.7215 10.8917 89.1404 10.8089 89.61C10.7303 90.0627 10.7882 90.3208 10.8627 90.4815C10.9413 90.6508 11.0944 90.8412 11.3965 91.0485C12.0669 91.5054 13.0974 91.8058 14.4299 92.1781L14.5457 92.2119C15.721 92.5377 17.1611 92.9396 18.2288 93.6631C18.8123 94.0608 19.3585 94.5981 19.6979 95.3428C20.0413 96.0959 20.1158 96.942 19.9586 97.8432C19.673 99.4509 18.5888 100.526 17.2439 101.088C16.6769 101.325 16.0603 101.477 15.4065 101.554V102.95C15.4065 103.699 14.8147 104.304 14.0823 104.304C13.3498 104.304 12.758 103.699 12.758 102.95V101.473C12.7415 101.469 12.7208 101.469 12.7042 101.465H12.6959C11.6862 101.304 10.0268 100.86 8.90944 100.352C8.23905 100.047 7.94109 99.2478 8.23905 98.5667C8.537 97.8855 9.31913 97.5766 9.98539 97.8813C10.8503 98.2747 12.2738 98.6597 13.0974 98.7951C14.4175 98.994 15.5058 98.8797 16.2424 98.5709C16.9418 98.279 17.2604 97.8559 17.3515 97.3482C17.4301 96.8955 17.3722 96.6374 17.2977 96.4766C17.2191 96.3074 17.0659 96.117 16.7638 95.9097C16.0935 95.4528 15.063 95.1524 13.7305 94.7801L13.6146 94.7462C12.4394 94.4204 10.9993 94.0185 9.93159 93.295C9.3481 92.8973 8.80185 92.36 8.46251 91.6154C8.11904 90.8623 8.04455 90.0161 8.2018 89.115C8.49976 87.4692 9.65847 86.4199 11.0241 85.8868C11.5621 85.6753 12.1497 85.5399 12.7622 85.4638V83.9957C12.7622 83.2468 13.3539 82.6418 14.0864 82.6418Z" fill="#166678"/>
<rect x="8.12317" y="30.6533" width="147.301" height="4.33238" rx="2.16619" fill="#79918E" fill-opacity="0.75"/>
<rect x="8.12317" y="40.4011" width="147.301" height="4.33238" rx="2.16619" fill="#79918E" fill-opacity="0.75"/>
<rect x="28.1604" y="52.8567" width="127.264" height="4.33238" rx="2.16619" fill="#79918E" fill-opacity="0.75"/>
<rect x="28.1604" y="61.5215" width="89.3553" height="4.33238" rx="2.16619" fill="#79918E" fill-opacity="0.75"/>
<rect x="28.1604" y="70.1862" width="105.06" height="4.33238" rx="2.16619" fill="#79918E" fill-opacity="0.75"/>
<rect x="28.1604" y="82.6418" width="127.264" height="4.33238" rx="2.16619" fill="#79918E" fill-opacity="0.75"/>
<rect x="28.1604" y="91.3066" width="89.3553" height="4.33238" rx="2.16619" fill="#79918E" fill-opacity="0.75"/>
<rect x="28.1604" y="99.9713" width="105.06" height="4.33238" rx="2.16619" fill="#79918E" fill-opacity="0.75"/>
<circle cx="139.448" cy="50.4197" r="47.0516" fill="#79918E" stroke="#E2E2E2" stroke-width="5"/>
<mask id="mask0_15_818" style="mask-type:alpha" maskUnits="userSpaceOnUse" x="87" y="0" width="100" height="100">
<circle cx="136.741" cy="50.4197" r="47.0516" fill="white" stroke="#E2E2E2" stroke-width="5"/>
</mask>
<g mask="url(#mask0_15_818)">
<rect x="116.974" y="26.3209" width="83.3983" height="20.0373" rx="10" fill="#166678"/>
<path d="M133.147 35.5082C133.432 35.5689 133.66 35.7112 133.833 35.9352C134.006 36.1545 134.092 36.4065 134.092 36.6912C134.092 37.1019 133.947 37.4285 133.658 37.6712C133.373 37.9092 132.974 38.0282 132.461 38.0282H130.172V33.1142H132.384C132.883 33.1142 133.273 33.2285 133.553 33.4572C133.838 33.6859 133.98 33.9962 133.98 34.3882C133.98 34.6775 133.903 34.9179 133.749 35.1092C133.6 35.3005 133.399 35.4335 133.147 35.5082ZM131.369 35.1022H132.153C132.349 35.1022 132.498 35.0602 132.601 34.9762C132.708 34.8875 132.762 34.7592 132.762 34.5912C132.762 34.4232 132.708 34.2949 132.601 34.2062C132.498 34.1175 132.349 34.0732 132.153 34.0732H131.369V35.1022ZM132.251 37.0622C132.452 37.0622 132.606 37.0179 132.713 36.9292C132.825 36.8359 132.881 36.7029 132.881 36.5302C132.881 36.3575 132.823 36.2222 132.706 36.1242C132.594 36.0262 132.438 35.9772 132.237 35.9772H131.369V37.0622H132.251ZM135.962 33.1142V36.0542C135.962 36.3482 136.035 36.5745 136.179 36.7332C136.324 36.8919 136.536 36.9712 136.816 36.9712C137.096 36.9712 137.311 36.8919 137.46 36.7332C137.61 36.5745 137.684 36.3482 137.684 36.0542V33.1142H138.881V36.0472C138.881 36.4859 138.788 36.8569 138.601 37.1602C138.415 37.4635 138.163 37.6922 137.845 37.8462C137.533 38.0002 137.183 38.0772 136.795 38.0772C136.408 38.0772 136.06 38.0025 135.752 37.8532C135.449 37.6992 135.209 37.4705 135.031 37.1672C134.854 36.8592 134.765 36.4859 134.765 36.0472V33.1142H135.962ZM141.563 33.1142C142.081 33.1142 142.534 33.2169 142.921 33.4222C143.308 33.6275 143.607 33.9169 143.817 34.2902C144.032 34.6589 144.139 35.0859 144.139 35.5712C144.139 36.0519 144.032 36.4789 143.817 36.8522C143.607 37.2255 143.306 37.5149 142.914 37.7202C142.527 37.9255 142.076 38.0282 141.563 38.0282H139.722V33.1142H141.563ZM141.486 36.9922C141.939 36.9922 142.291 36.8685 142.543 36.6212C142.795 36.3739 142.921 36.0239 142.921 35.5712C142.921 35.1185 142.795 34.7662 142.543 34.5142C142.291 34.2622 141.939 34.1362 141.486 34.1362H140.919V36.9922H141.486ZM148.07 34.6682C147.981 34.5049 147.853 34.3812 147.685 34.2972C147.521 34.2085 147.328 34.1642 147.104 34.1642C146.716 34.1642 146.406 34.2925 146.173 34.5492C145.939 34.8012 145.823 35.1395 145.823 35.5642C145.823 36.0169 145.944 36.3715 146.187 36.6282C146.434 36.8802 146.772 37.0062 147.202 37.0062C147.496 37.0062 147.743 36.9315 147.944 36.7822C148.149 36.6329 148.298 36.4182 148.392 36.1382H146.873V35.2562H149.477V36.3692C149.388 36.6679 149.236 36.9455 149.022 37.2022C148.812 37.4589 148.543 37.6665 148.217 37.8252C147.89 37.9839 147.521 38.0632 147.111 38.0632C146.625 38.0632 146.191 37.9582 145.809 37.7482C145.431 37.5335 145.134 37.2372 144.92 36.8592C144.71 36.4812 144.605 36.0495 144.605 35.5642C144.605 35.0789 144.71 34.6472 144.92 34.2692C145.134 33.8865 145.431 33.5902 145.809 33.3802C146.187 33.1655 146.618 33.0582 147.104 33.0582C147.692 33.0582 148.186 33.2005 148.588 33.4852C148.994 33.7699 149.262 34.1642 149.393 34.6682H148.07ZM151.337 34.0732V35.0672H152.94V35.9912H151.337V37.0692H153.15V38.0282H150.14V33.1142H153.15V34.0732H151.337ZM157.462 33.1142V34.0732H156.16V38.0282H154.963V34.0732H153.661V33.1142H157.462Z" fill="white"/>
<rect x="116.974" y="54.4814" width="83.3983" height="20.0373" rx="10" fill="#166678"/>
<path d="M130.72 62.1532V63.1472H132.323V64.0712H130.72V65.1492H132.533V66.1082H129.523V61.1942H132.533V62.1532H130.72ZM136.32 66.1082L135.319 64.6032L134.437 66.1082H133.079L134.654 63.6092L133.044 61.1942H134.437L135.424 62.6782L136.292 61.1942H137.65L136.089 63.6722L137.713 66.1082H136.32ZM142.059 62.7762C142.059 63.0609 141.994 63.3222 141.863 63.5602C141.732 63.7935 141.532 63.9825 141.261 64.1272C140.99 64.2719 140.654 64.3442 140.253 64.3442H139.511V66.1082H138.314V61.1942H140.253C140.645 61.1942 140.976 61.2619 141.247 61.3972C141.518 61.5325 141.721 61.7192 141.856 61.9572C141.991 62.1952 142.059 62.4682 142.059 62.7762ZM140.162 63.3922C140.391 63.3922 140.561 63.3385 140.673 63.2312C140.785 63.1239 140.841 62.9722 140.841 62.7762C140.841 62.5802 140.785 62.4285 140.673 62.3212C140.561 62.2139 140.391 62.1602 140.162 62.1602H139.511V63.3922H140.162ZM143.879 62.1532V63.1472H145.482V64.0712H143.879V65.1492H145.692V66.1082H142.682V61.1942H145.692V62.1532H143.879ZM150.865 66.1082H149.668L147.666 63.0772V66.1082H146.469V61.1942H147.666L149.668 64.2392V61.1942H150.865V66.1082ZM153.511 66.1572C153.152 66.1572 152.83 66.0989 152.545 65.9822C152.26 65.8655 152.032 65.6929 151.859 65.4642C151.691 65.2355 151.602 64.9602 151.593 64.6382H152.867C152.886 64.8202 152.949 64.9602 153.056 65.0582C153.163 65.1515 153.303 65.1982 153.476 65.1982C153.653 65.1982 153.793 65.1585 153.896 65.0792C153.999 64.9952 154.05 64.8809 154.05 64.7362C154.05 64.6149 154.008 64.5145 153.924 64.4352C153.845 64.3559 153.744 64.2905 153.623 64.2392C153.506 64.1879 153.338 64.1295 153.119 64.0642C152.802 63.9662 152.543 63.8682 152.342 63.7702C152.141 63.6722 151.969 63.5275 151.824 63.3362C151.679 63.1449 151.607 62.8952 151.607 62.5872C151.607 62.1299 151.773 61.7729 152.104 61.5162C152.435 61.2549 152.867 61.1242 153.399 61.1242C153.94 61.1242 154.377 61.2549 154.708 61.5162C155.039 61.7729 155.217 62.1322 155.24 62.5942H153.945C153.936 62.4355 153.877 62.3119 153.77 62.2232C153.663 62.1299 153.525 62.0832 153.357 62.0832C153.212 62.0832 153.096 62.1229 153.007 62.2022C152.918 62.2769 152.874 62.3865 152.874 62.5312C152.874 62.6899 152.949 62.8135 153.098 62.9022C153.247 62.9909 153.481 63.0865 153.798 63.1892C154.115 63.2965 154.372 63.3992 154.568 63.4972C154.769 63.5952 154.941 63.7375 155.086 63.9242C155.231 64.1109 155.303 64.3512 155.303 64.6452C155.303 64.9252 155.231 65.1795 155.086 65.4082C154.946 65.6369 154.741 65.8189 154.47 65.9542C154.199 66.0895 153.88 66.1572 153.511 66.1572ZM157.237 62.1532V63.1472H158.84V64.0712H157.237V65.1492H159.05V66.1082H156.04V61.1942H159.05V62.1532H157.237ZM161.605 66.1572C161.245 66.1572 160.923 66.0989 160.639 65.9822C160.354 65.8655 160.125 65.6929 159.953 65.4642C159.785 65.2355 159.696 64.9602 159.687 64.6382H160.961C160.979 64.8202 161.042 64.9602 161.15 65.0582C161.257 65.1515 161.397 65.1982 161.57 65.1982C161.747 65.1982 161.887 65.1585 161.99 65.0792C162.092 64.9952 162.144 64.8809 162.144 64.7362C162.144 64.6149 162.102 64.5145 162.018 64.4352C161.938 64.3559 161.838 64.2905 161.717 64.2392C161.6 64.1879 161.432 64.1295 161.213 64.0642C160.895 63.9662 160.636 63.8682 160.436 63.7702C160.235 63.6722 160.062 63.5275 159.918 63.3362C159.773 63.1449 159.701 62.8952 159.701 62.5872C159.701 62.1299 159.866 61.7729 160.198 61.5162C160.529 61.2549 160.961 61.1242 161.493 61.1242C162.034 61.1242 162.47 61.2549 162.802 61.5162C163.133 61.7729 163.31 62.1322 163.334 62.5942H162.039C162.029 62.4355 161.971 62.3119 161.864 62.2232C161.756 62.1299 161.619 62.0832 161.451 62.0832C161.306 62.0832 161.189 62.1229 161.101 62.2022C161.012 62.2769 160.968 62.3865 160.968 62.5312C160.968 62.6899 161.042 62.8135 161.192 62.9022C161.341 62.9909 161.574 63.0865 161.892 63.1892C162.209 63.2965 162.466 63.3992 162.662 63.4972C162.862 63.5952 163.035 63.7375 163.18 63.9242C163.324 64.1109 163.397 64.3512 163.397 64.6452C163.397 64.9252 163.324 65.1795 163.18 65.4082C163.04 65.6369 162.834 65.8189 162.564 65.9542C162.293 66.0895 161.973 66.1572 161.605 66.1572Z" fill="white"/>
</g>
<defs>
<linearGradient id="paint0_linear_15_818" x1="81.7737" y1="22.5301" x2="82.08" y2="136.408" gradientUnits="userSpaceOnUse">
<stop stop-color="#E2E2E2"/>
<stop offset="1" stop-color="#E2E2E2" stop-opacity="0"/>
</linearGradient>
</defs>
</svg>
